<svg version="1" xmlns="http://www.w3.org/2000/svg" width="413.333" height="413.333" viewBox="0 0 310.000000 310.000000"><path d="M42 .7c-5.2.8-14.7 4.7-19.7 8C13.2 14.7 7 22.8 2.9 34L.5 40.5v229l2.4 6.5c5.6 15.3 15.7 25.4 31.1 31.1l6.5 2.4h229l6.5-2.4c15.3-5.6 25.4-15.7 31.1-31.1l2.4-6.5v-229l-2.4-6.5c-5.6-15.1-15.3-25-30.6-31.1l-6-2.4-113-.1C95.4.3 43.4.4 42 .7zm125.7 43.8c4.3 1.8 13 10.1 15.3 14.5 9 17.7-6.9 40.5-27.1 38.7-17.1-1.5-29.6-17.6-25.6-33 4.5-17.2 22-26.6 37.4-20.2zm9.3 70.8c1.9 1.2 4.3 3.7 5.3 5.5 1.9 3.2 2 5.5 1.8 55.7-.2 59.7-.9 55.1 8.7 57.4 5.4 1.4 10.8 5.8 11.8 9.8 1.1 4.4-.2 11.3-2.7 14-4.4 4.7-7.6 5.4-18.6 4.1-12.7-1.6-29.9-1.6-44.1 0-10.6 1.2-11.6 1.1-15.8-.7-5.1-2.3-7.4-6.4-7.4-13.3 0-8.3 5-13.1 14.9-14.4 8.4-1.1 8.1.6 8.1-42 0-24-.4-38.2-1.1-40.2-1.1-3.1-3-4.2-10.6-5.7-6.1-1.2-11.3-7.5-11.3-13.7 0-3.6 4-10.8 6.9-12.2 1.4-.8 8.5-1.9 15.6-2.6 7.2-.7 16.2-1.8 20-2.5 10.8-2 14.7-1.8 18.5.8z"/></svg>