<?xml version="1.0" encoding="UTF-8" standalone="no"?>
<svg
   xmlns:dc="http://purl.org/dc/elements/1.1/"
   xmlns:cc="http://creativecommons.org/ns#"
   xmlns:rdf="http://www.w3.org/1999/02/22-rdf-syntax-ns#"
   xmlns:svg="http://www.w3.org/2000/svg"
   xmlns="http://www.w3.org/2000/svg"
   id="svg2777"
   version="1.1"
   viewBox="0 0 17.196829 17.161943"
   height="17.161943mm"
   width="17.196829mm">
  <defs
     id="defs2771" />
  <metadata
     id="metadata2774">
    <rdf:RDF>
      <cc:Work
         rdf:about="">
        <dc:format>image/svg+xml</dc:format>
        <dc:type
           rdf:resource="http://purl.org/dc/dcmitype/StillImage" />
        <dc:title></dc:title>
      </cc:Work>
    </rdf:RDF>
  </metadata>
  <g
     transform="translate(-60.891663,-48.945532)"
     id="layer1">
    <g
       id="g987"
       transform="matrix(0.26458333,0,0,0.26458333,15.920632,26.377694)">
      <path
         style="fill:#671a1d"
         id="path981"
         d="m 198.6,85.4 c 4.7,-0.5 9.6,-0.1 14.1,1.4 1,0.3 1.9,0.6 2.9,0.9 l 0.1,0.1 c 0.2,0.2 0.5,0.4 0.8,0.6 7.7,3.6 13.7,10.3 16.5,18.1 2.3,6.3 2.6,13.3 0.8,19.8 -2.2,8.1 -7.8,15.4 -15.4,19.7 -3.7,2.1 -7.8,3.4 -12,3.9 -2,0.3 -4.1,0.3 -6.2,0.2 -1,-0.1 -2,-0.4 -3.1,-0.4 -3.6,-0.7 -7.1,-1.8 -10.3,-3.6 -6.2,-3.4 -11.2,-8.8 -14,-15.2 -2.4,-5.3 -3.3,-11.1 -2.6,-16.9 0.6,-5.7 2.8,-11.2 6.3,-15.9 2.2,-2.9 4.8,-5.4 7.9,-7.5 4.3,-2.8 9.2,-4.6 14.2,-5.2"
         class="st0" />
      <g
         id="g985">
        <path
           style="fill:#ffffff"
           id="path983"
           d="m 210.4,115.4 12.2,-10.5 c 0.1,0.3 0.2,0.5 0.2,0.8 v 23.1 c 0,0.2 -0.1,0.4 -0.1,0.6 z m 9.5,-12.5 c 0.2,0 0.4,0.1 0.5,0.1 L 202.5,118.3 184.7,103 c 0.2,0 0.3,-0.1 0.5,-0.1 z m -37.4,26.5 c 0,-0.2 -0.1,-0.4 -0.1,-0.6 v -23.1 c 0,-0.3 0.1,-0.6 0.2,-0.8 l 12.2,10.5 z m 2.7,2.3 c -0.3,0 -0.6,-0.1 -0.8,-0.2 l 12.5,-14.3 4.7,4 c 0.3,0.2 0.6,0.3 0.9,0.3 0.3,0 0.7,-0.1 0.9,-0.3 l 4.7,-4 12.5,14.3 c -0.3,0.1 -0.5,0.2 -0.8,0.2 z"
           class="st2" />
      </g>
    </g>
  </g>
</svg>
