<?xml version="1.0" encoding="UTF-8" standalone="no"?>
<svg
   xmlns:dc="http://purl.org/dc/elements/1.1/"
   xmlns:cc="http://creativecommons.org/ns#"
   xmlns:rdf="http://www.w3.org/1999/02/22-rdf-syntax-ns#"
   xmlns:svg="http://www.w3.org/2000/svg"
   xmlns="http://www.w3.org/2000/svg"
   id="svg2777"
   version="1.1"
   viewBox="0 0 17.196829 17.161943"
   height="17.161943mm"
   width="17.196829mm">
  <defs
     id="defs2771" />
  <metadata
     id="metadata2774">
    <rdf:RDF>
      <cc:Work
         rdf:about="">
        <dc:format>image/svg+xml</dc:format>
        <dc:type
           rdf:resource="http://purl.org/dc/dcmitype/StillImage" />
        <dc:title></dc:title>
      </cc:Work>
    </rdf:RDF>
  </metadata>
  <g
     transform="translate(-60.891663,-48.945532)"
     id="layer1">
    <path
       class="st0"
       d="m 68.493339,48.999569 c 1.243541,-0.132291 2.54,-0.02646 3.730625,0.370417 0.264584,0.07938 0.502709,0.15875 0.767292,0.238125 l 0.02646,0.02646 c 0.05292,0.05292 0.105834,0.105834 0.185209,0.132292 2.037291,0.978958 3.624791,2.751667 4.365625,4.788958 0.608541,1.666875 0.687916,3.518959 0.211666,5.23875 -0.582083,2.143125 -2.06375,4.074583 -4.074583,5.212292 -0.978958,0.555625 -2.06375,0.899583 -3.175001,1.031875 -0.529166,0.07937 -1.084791,0.07937 -1.640416,0.05292 -0.264584,-0.02646 -0.529167,-0.105833 -0.820209,-0.105833 -0.9525,-0.185208 -1.878541,-0.47625 -2.725208,-0.9525 -1.640419,-0.899587 -2.963335,-2.328337 -3.704168,-4.021671 -0.635,-1.402291 -0.873125,-2.936874 -0.687917,-4.471458 0.211667,-1.481666 0.79375,-2.936875 1.719792,-4.180416 0.582083,-0.767292 1.269999,-1.42875 2.090208,-1.984375 1.11125,-0.714375 2.38125,-1.217084 3.730625,-1.375834"
       id="path940"
       style="fill:#671a1d;stroke-width:0.26458332" />
    <g
       id="g950"
       transform="matrix(0.26458333,0,0,0.26458333,60.952714,48.946653)">
      <path
         class="st2"
         d="M 32.6,12 C 26.7,12 22,16.7 22,22.6 c 0,5.9 4.7,10.6 10.6,10.6 5.9,0 10.6,-4.7 10.6,-10.6 C 43.2,16.7 38.4,12 32.6,12 Z m 0,15 c -2.4,0 -4.4,-2 -4.4,-4.4 0,-2.4 2,-4.4 4.4,-4.4 2.4,0 4.4,2 4.4,4.4 0,2.4 -2,4.4 -4.4,4.4 z"
         id="path942"
         style="fill:#ffffff" />
      <g
         id="g948">
        <path
           class="st2"
           d="m 36.3,41.6 c 4.2,-0.9 6.8,-2.9 6.9,-3 1.2,-1 1.4,-2.8 0.4,-4 -1,-1.2 -2.8,-1.4 -4,-0.4 0,0 -2.7,2.1 -7.2,2.1 -4.5,0 -7.2,-2.1 -7.2,-2.1 -1.2,-1 -3,-0.8 -4,0.4 -1,1.2 -0.8,3 0.4,4 0.1,0.1 2.8,2.2 7.1,3 l -6,6.4 c -1.1,1.1 -1.1,3 0.1,4.1 0.6,0.5 1.3,0.8 2,0.8 0.8,0 1.5,-0.3 2.1,-0.9 l 5.6,-6 6.2,6 c 1.1,1.1 2.9,1.1 4.1,0 1.1,-1.1 1.1,-2.9 0,-4.1 z"
           id="path944"
           style="fill:#ffffff" />
        <path
           class="st2"
           d="m 32.4,36.2 c 0,0 0.1,0 0,0 -0.1,0 0.1,0 0,0 z"
           id="path946"
           style="fill:#ffffff" />
      </g>
    </g>
  </g>
</svg>
