<?xml version="1.0" encoding="UTF-8" standalone="no"?>
<svg
   xmlns:dc="http://purl.org/dc/elements/1.1/"
   xmlns:cc="http://creativecommons.org/ns#"
   xmlns:rdf="http://www.w3.org/1999/02/22-rdf-syntax-ns#"
   xmlns:svg="http://www.w3.org/2000/svg"
   xmlns="http://www.w3.org/2000/svg"
   id="svg2777"
   version="1.1"
   viewBox="0 0 17.196829 17.161943"
   height="17.161943mm"
   width="17.196829mm">
  <defs
     id="defs2771" />
  <metadata
     id="metadata2774">
    <rdf:RDF>
      <cc:Work
         rdf:about="">
        <dc:format>image/svg+xml</dc:format>
        <dc:type
           rdf:resource="http://purl.org/dc/dcmitype/StillImage" />
        <dc:title></dc:title>
      </cc:Work>
    </rdf:RDF>
  </metadata>
  <g
     transform="translate(-60.891663,-48.945532)"
     id="layer1">
    <g
       id="g979"
       transform="matrix(0.26458333,0,0,0.26458333,38.436673,26.377694)">
      <path
         style="fill:#671a1d"
         id="path974"
         d="m 113.5,85.4 c 4.7,-0.5 9.6,-0.1 14.1,1.4 1,0.3 1.9,0.6 2.9,0.9 l 0.1,0.1 c 0.3,0.2 0.5,0.4 0.8,0.6 7.7,3.6 13.7,10.3 16.5,18.1 2.3,6.3 2.6,13.3 0.8,19.8 -2.2,8.1 -7.8,15.4 -15.4,19.7 -3.7,2.1 -7.8,3.4 -12,3.9 -2,0.3 -4.1,0.3 -6.2,0.2 -1,-0.1 -2,-0.4 -3.1,-0.4 -3.6,-0.7 -7.1,-1.8 -10.3,-3.6 -6.2,-3.4 -11.2,-8.8 -14,-15.2 -2.4,-5.3 -3.3,-11.1 -2.6,-16.9 0.6,-5.7 2.8,-11.2 6.3,-15.9 2.2,-2.9 4.8,-5.4 7.9,-7.5 4.3,-2.8 9.2,-4.6 14.2,-5.2"
         class="st0" />
      <g
         id="Icons_2_">
        <g
           transform="translate(-800,-760)"
           id="Black_1_">
          <path
             style="fill:#ffffff"
             d="m 900.6,889.6 c 0,-2.7 2.2,-4.8 4.8,-4.8 2.6,0 4.8,2.2 4.8,4.8 0,2.6 -2.2,4.8 -4.8,4.8 -2.6,0 -4.8,-2.1 -4.8,-4.8 z m 33.7,4.8 h -6.4 c 0,-15 -12.2,-27.3 -27.3,-27.3 v -6.4 c 18.6,0 33.7,15.2 33.7,33.7 z m -11.2,0 h -6.4 c 0,-8.8 -7.2,-16 -16,-16 V 872 c 12.3,0 22.4,10 22.4,22.4 z"
             class="st2"
             id="RSS_1_" />
        </g>
      </g>
    </g>
  </g>
</svg>
