<?xml version="1.0" encoding="UTF-8" standalone="no"?>
<svg
   xmlns:dc="http://purl.org/dc/elements/1.1/"
   xmlns:cc="http://creativecommons.org/ns#"
   xmlns:rdf="http://www.w3.org/1999/02/22-rdf-syntax-ns#"
   xmlns:svg="http://www.w3.org/2000/svg"
   xmlns="http://www.w3.org/2000/svg"
   id="svg2777"
   version="1.1"
   viewBox="0 0 17.196829 17.161943"
   height="17.161943mm"
   width="17.196829mm">
  <defs
     id="defs2771" />
  <metadata
     id="metadata2774">
    <rdf:RDF>
      <cc:Work
         rdf:about="">
        <dc:format>image/svg+xml</dc:format>
        <dc:type
           rdf:resource="http://purl.org/dc/dcmitype/StillImage" />
        <dc:title></dc:title>
      </cc:Work>
    </rdf:RDF>
  </metadata>
  <g
     transform="translate(-60.891663,-48.945532)"
     id="layer1">
    <g
       id="g959"
       transform="matrix(0.26458333,0,0,0.26458333,-6.5954098,48.920193)">
      <path
         class="st0"
         d="m 283.7,0.2 c 4.7,-0.5 9.6,-0.1 14.1,1.4 1,0.3 1.9,0.6 2.9,0.9 l 0.1,0.1 c 0.2,0.2 0.5,0.4 0.8,0.6 7.7,3.6 13.7,10.3 16.5,18.1 2.3,6.3 2.6,13.3 0.8,19.8 -2.2,8.1 -7.8,15.4 -15.4,19.7 -3.7,2.1 -7.8,3.4 -12,3.9 -2,0.3 -4.1,0.3 -6.2,0.2 -1,-0.1 -2,-0.4 -3.1,-0.4 -3.6,-0.7 -7.1,-1.8 -10.3,-3.6 -6.2,-3.4 -11.2,-8.8 -14,-15.2 -2.4,-5.3 -3.3,-11.1 -2.6,-16.9 0.6,-5.7 2.8,-11.2 6.3,-15.9 2.2,-2.9 4.8,-5.4 7.9,-7.5 4.2,-2.7 9.1,-4.6 14.2,-5.2"
         id="path954"
         style="fill:#671a1d" />
      <g
         id="Icons_1_">
        <g
           id="Color-_1_"
           transform="translate(-300,-164)">
          <path
             id="Twitter_1_"
             class="st2"
             d="m 608.2,183.6 c -1.5,0.7 -3.1,1.1 -4.8,1.3 1.7,-1 3,-2.7 3.6,-4.7 -1.6,1 -3.4,1.7 -5.3,2.1 -1.5,-1.7 -3.7,-2.7 -6.1,-2.7 -4.6,0 -8.3,3.8 -8.3,8.5 0,0.7 0.1,1.3 0.2,1.9 -6.9,-0.4 -13,-3.7 -17.1,-8.9 -0.7,1.3 -1.1,2.7 -1.1,4.3 0,2.9 1.5,5.6 3.7,7.1 -1.4,0 -2.6,-0.4 -3.8,-1.1 v 0.1 c 0,4.1 2.9,7.6 6.7,8.3 -0.7,0.2 -1.4,0.3 -2.2,0.3 -0.5,0 -1.1,0 -1.6,-0.2 1.1,3.4 4.1,5.8 7.7,5.9 -2.8,2.3 -6.4,3.6 -10.3,3.6 -0.7,0 -1.3,0 -2,-0.1 3.7,2.4 8,3.8 12.7,3.8 15.3,0 23.6,-13 23.6,-24.2 0,-0.4 0,-0.7 0,-1.1 1.9,-1 3.3,-2.5 4.4,-4.2"
             style="fill:#ffffff" />
        </g>
      </g>
    </g>
  </g>
</svg>
