<?xml version="1.0" encoding="UTF-8" standalone="no"?>
<svg
   xmlns:dc="http://purl.org/dc/elements/1.1/"
   xmlns:cc="http://creativecommons.org/ns#"
   xmlns:rdf="http://www.w3.org/1999/02/22-rdf-syntax-ns#"
   xmlns:svg="http://www.w3.org/2000/svg"
   xmlns="http://www.w3.org/2000/svg"
   id="svg2777"
   version="1.1"
   viewBox="0 0 17.196829 17.161943"
   height="17.161943mm"
   width="17.196829mm">
  <defs
     id="defs2771" />
  <metadata
     id="metadata2774">
    <rdf:RDF>
      <cc:Work
         rdf:about="">
        <dc:format>image/svg+xml</dc:format>
        <dc:type
           rdf:resource="http://purl.org/dc/dcmitype/StillImage" />
        <dc:title></dc:title>
      </cc:Work>
    </rdf:RDF>
  </metadata>
  <g
     transform="translate(-60.891663,-48.945532)"
     id="layer1">
    <path
       style="fill:#671a1d;stroke-width:0.26458332"
       id="path989"
       d="m 68.466879,48.973111 c 1.243542,-0.132292 2.54,-0.02646 3.730625,0.370416 0.264583,0.07937 0.502708,0.15875 0.767292,0.238125 l 0.02646,0.02646 c 0.05292,0.05292 0.132292,0.105833 0.211667,0.15875 2.037291,0.9525 3.624791,2.725208 4.365625,4.788958 0.608541,1.666875 0.687916,3.518959 0.211666,5.23875 -0.582083,2.143125 -2.06375,4.074584 -4.074583,5.212292 -0.978958,0.555625 -2.06375,0.899583 -3.175,1.031875 -0.529167,0.07937 -1.084792,0.07937 -1.640417,0.05292 -0.264583,-0.02646 -0.529166,-0.105834 -0.820208,-0.105834 -0.9525,-0.185208 -1.878542,-0.47625 -2.725208,-0.9525 -1.640417,-0.899583 -2.963334,-2.328333 -3.704167,-4.021666 -0.635,-1.402292 -0.873125,-2.936875 -0.687917,-4.471459 0.15875,-1.508125 0.740834,-2.963333 1.666875,-4.206875 0.582084,-0.767291 1.27,-1.42875 2.090209,-1.984375 1.11125,-0.740833 2.407708,-1.217083 3.757083,-1.375833"
       class="st0" />
    <g
       id="g1011"
       transform="matrix(0.26458333,0,0,0.26458333,-6.5954115,26.377694)">
      <g
         id="g993">
        <path
           style="fill:#ffffff"
           id="path991"
           d="m 303.3,100.4 c -1.1,-1 -5.3,-4.1 -14.9,-4.1 0,0 -11.3,-0.7 -16.7,4.4 -3.1,3.1 -4.1,7.5 -4.2,13.1 -0.1,5.5 -0.3,15.9 9.8,18.7 v 0 4.3 c 0,0 -0.1,1.7 1.1,2.1 1.4,0.4 2.2,-0.9 3.5,-2.3 0.7,-0.8 1.7,-1.9 2.5,-2.8 6.8,0.6 12.1,-0.7 12.7,-0.9 1.4,-0.4 9.2,-1.5 10.5,-11.8 1.1,-10.9 -0.8,-17.6 -4.3,-20.7 z m 1.1,19.8 c -1.1,8.7 -7.4,9.2 -8.6,9.6 -0.5,0.2 -5.1,1.3 -10.9,0.9 0,0 -4.3,5.2 -5.7,6.6 -0.2,0.2 -0.5,0.3 -0.6,0.3 -0.2,-0.1 -0.3,-0.3 -0.3,-0.7 0,-0.6 0,-7.1 0,-7.1 0,0 0,0 0,0 -8.5,-2.4 -8,-11.2 -7.9,-15.8 0.1,-4.6 1,-8.4 3.5,-11 4.6,-4.2 14.2,-3.6 14.2,-3.6 8.1,0 11.9,2.5 12.8,3.3 3.1,2.4 4.6,8.5 3.5,17.5 z"
           class="st2" />
      </g>
      <g
         id="g997">
        <path
           style="fill:#ffffff"
           id="path995"
           d="m 292.3,114 c -0.3,0 -0.5,-0.2 -0.5,-0.5 -0.1,-1.8 -1,-2.7 -2.7,-2.8 -0.3,0 -0.5,-0.3 -0.5,-0.6 0,-0.3 0.3,-0.5 0.6,-0.5 2.3,0.1 3.6,1.5 3.7,3.8 -0.1,0.3 -0.3,0.6 -0.6,0.6 0,0 0,0 0,0 z"
           class="st2" />
      </g>
      <g
         id="g1001">
        <path
           style="fill:#ffffff"
           id="path999"
           d="m 295.1,114.9 c -0.1,0 -0.1,0 0,0 -0.3,0 -0.5,-0.3 -0.5,-0.6 0,-1.8 -0.5,-3.3 -1.6,-4.6 -1.1,-1.2 -2.7,-1.9 -4.7,-2 -0.3,0 -0.5,-0.3 -0.5,-0.6 0,-0.3 0.3,-0.5 0.6,-0.5 2.3,0.2 4.1,1 5.4,2.4 1.3,1.4 1.9,3.2 1.9,5.3 -0.1,0.4 -0.4,0.6 -0.6,0.6 z"
           class="st2" />
      </g>
      <g
         id="g1005">
        <path
           style="fill:#ffffff"
           id="path1003"
           d="m 297.9,116 c -0.3,0 -0.5,-0.2 -0.5,-0.5 0,-3.3 -1,-5.8 -2.9,-7.7 -1.9,-1.9 -4.3,-2.8 -7.2,-2.8 -0.3,0 -0.5,-0.2 -0.5,-0.5 0,-0.3 0.2,-0.5 0.5,-0.5 v 0 c 3.1,0 5.8,1.1 7.9,3.1 2.1,2.1 3.2,4.9 3.2,8.5 0,0.2 -0.2,0.4 -0.5,0.4 z"
           class="st2" />
      </g>
      <g
         id="g1009">
        <path
           style="fill:#ffffff"
           id="path1007"
           d="m 289.2,120.7 c 0,0 0.8,0.1 1.2,-0.4 l 0.8,-1 c 0.4,-0.5 1.3,-0.8 2.2,-0.3 0.5,0.3 1.4,0.8 2,1.3 0.6,0.4 1.8,1.5 1.8,1.5 0.6,0.5 0.7,1.2 0.3,2 0,0 0,0 0,0 -0.4,0.7 -1,1.4 -1.7,2 0,0 0,0 0,0 -0.6,0.5 -1.1,0.7 -1.7,0.8 -0.1,0 -0.1,0 -0.2,0 -0.2,0 -0.5,0 -0.7,-0.1 v 0 c -0.9,-0.2 -2.3,-0.8 -4.6,-2.1 -1.5,-0.8 -2.8,-1.7 -3.9,-2.6 -0.6,-0.4 -1.2,-1 -1.7,-1.5 0,0 0,0 -0.1,-0.1 0,0 0,0 -0.1,-0.1 v 0 0 c 0,0 0,0 -0.1,-0.1 -0.1,-0.1 0,0 -0.1,-0.1 -0.6,-0.6 -1.1,-1.2 -1.5,-1.7 -0.9,-1.1 -1.7,-2.4 -2.6,-3.9 -1.3,-2.4 -1.9,-3.8 -2.1,-4.6 v 0 c -0.1,-0.2 -0.1,-0.5 -0.1,-0.7 0,-0.1 0,-0.2 0,-0.2 0.1,-0.6 0.3,-1.1 0.8,-1.7 0,0 0,0 0,0 0.6,-0.7 1.3,-1.2 2,-1.7 0,0 0,0 0,0 0.8,-0.4 1.5,-0.3 2,0.3 0,0 1,1.2 1.5,1.8 0.4,0.6 1,1.5 1.3,2 0.5,0.9 0.2,1.8 -0.3,2.2 l -1,0.8 c -0.5,0.4 -0.4,1.2 -0.4,1.2 0,0 1.4,5.6 7,7 z"
           class="st2" />
      </g>
    </g>
  </g>
</svg>
