<?xml version="1.0" encoding="UTF-8" standalone="no"?>
<svg
   xmlns:dc="http://purl.org/dc/elements/1.1/"
   xmlns:cc="http://creativecommons.org/ns#"
   xmlns:rdf="http://www.w3.org/1999/02/22-rdf-syntax-ns#"
   xmlns:svg="http://www.w3.org/2000/svg"
   xmlns="http://www.w3.org/2000/svg"
   id="svg2777"
   version="1.1"
   viewBox="0 0 17.196829 17.161943"
   height="17.161943mm"
   width="17.196829mm">
  <defs
     id="defs2771" />
  <metadata
     id="metadata2774">
    <rdf:RDF>
      <cc:Work
         rdf:about="">
        <dc:format>image/svg+xml</dc:format>
        <dc:type
           rdf:resource="http://purl.org/dc/dcmitype/StillImage" />
        <dc:title></dc:title>
      </cc:Work>
    </rdf:RDF>
  </metadata>
  <g
     transform="translate(-60.891663,-48.945532)"
     id="layer1">
    <g
       id="g938"
       transform="matrix(0.26458333,0,0,0.26458333,38.323808,48.955861)">
      <path
         class="st0"
         d="m 102.2,3.8 c 4.5,-2.4 9.6,-3.8 14.7,-3.8 3.3,-0.1 6.6,0.4 9.8,1.3 1.1,0.4 2.3,0.7 3.4,1.1 0,0 0,0 0.1,0.1 0.3,0.3 0.8,0.4 1.2,0.6 4.5,2.2 8.6,5.3 11.6,9.2 5.1,6.4 7.5,14.6 6.9,22.6 -0.4,4.9 -1.9,9.8 -4.5,14.1 -2.5,4.2 -6,7.9 -10.2,10.6 -3.9,2.5 -8.3,4.2 -13,4.9 -0.8,0.1 -1.7,0.3 -2.5,0.3 -1.6,0 -3.2,0.1 -4.8,-0.1 -0.9,0 -1.7,-0.2 -2.6,-0.3 -2.2,-0.4 -4.4,-1 -6.5,-1.8 C 99.1,60 93.4,55 89.8,49 86.9,44.1 85.3,38.5 85.3,32.9 85.2,26.7 86.9,20.5 90.3,15.2 93,10.4 97.2,6.5 102.2,3.8"
         id="path931"
         style="fill:#671a1d" />
      <path
         class="st1"
         d="m 110.8,20.7 c -0.8,0.2 -1.8,0.7 -2,1.6 0.8,0.2 1.8,0.4 2.3,1.2 0.5,0.8 0.6,1.7 0.7,2.5 0.1,2 0.2,4.1 -0.2,6.1 -0.1,0.5 -0.3,1.2 -0.8,1.5 -0.6,0.3 -1.2,-0.1 -1.6,-0.5 -1.1,-1.1 -1.9,-2.4 -2.7,-3.6 -1.3,-2.1 -2.4,-4.3 -3.3,-6.6 -0.3,-0.8 -1.1,-1.2 -1.9,-1.2 -2.1,0 -4.2,0 -6.4,0 -0.6,0 -1.2,0.1 -1.6,0.5 -0.2,0.4 -0.1,1 0.1,1.4 1,2.2 2,4.3 3.1,6.4 2.1,4 4.5,8 7.5,11.4 2.6,3 6.2,5.2 10.1,5.8 1.5,0.3 3.1,0.2 4.7,0.2 0.6,0 1.2,-0.1 1.7,-0.5 0.4,-0.3 0.5,-0.9 0.5,-1.4 0,-1 0.1,-2.1 0.5,-3.1 0.2,-0.6 0.7,-1.2 1.4,-1.3 0.6,0 1.2,0.4 1.6,0.8 1.3,1.2 2.3,2.6 3.6,3.8 1,0.9 2.3,1.7 3.7,1.7 2.2,-0.1 4.4,-0.1 6.6,-0.1 0.8,-0.1 1.6,-0.3 2.1,-0.9 0.4,-0.6 0.1,-1.3 -0.2,-1.8 -1,-1.7 -2.4,-3.2 -3.8,-4.6 -0.9,-0.9 -2,-1.8 -2.9,-2.8 -0.4,-0.5 -0.9,-1.1 -0.7,-1.8 0.2,-0.8 0.7,-1.5 1.1,-2.1 1.6,-2.2 3.3,-4.2 4.8,-6.5 0.7,-1.1 1.4,-2.2 1.7,-3.4 0.1,-0.5 0.2,-1.1 -0.2,-1.5 -0.7,-0.5 -1.6,-0.4 -2.5,-0.3 -2.2,0 -4.3,0 -6.5,0 -0.4,0 -0.9,-0.1 -1.3,0.2 -0.4,0.3 -0.6,0.8 -0.8,1.3 -0.8,2.1 -1.8,4.1 -3,6 -0.8,1.3 -1.7,2.6 -2.8,3.7 -0.4,0.3 -0.8,0.8 -1.4,0.7 -0.6,-0.2 -0.9,-0.8 -1,-1.4 -0.3,-1.3 -0.1,-2.5 -0.1,-3.8 0,-1.8 0.2,-3.6 0.1,-5.4 0,-0.8 -0.3,-1.8 -1.1,-2.1 -1.4,-0.5 -2.9,-0.5 -4.4,-0.5 -1.7,0 -3.2,0 -4.7,0.4 z"
         id="path933"
         style="fill:#4d76a1" />
      <g
         id="_x23_ffffffff_1_">
        <path
           class="st2"
           d="m 110.8,20.7 c 1.5,-0.4 3.1,-0.3 4.6,-0.3 1.5,0 3,0 4.4,0.5 0.8,0.3 1.1,1.3 1.1,2.1 0.1,1.8 -0.1,3.6 -0.1,5.4 0,1.3 -0.2,2.5 0.1,3.8 0.1,0.6 0.4,1.2 1,1.4 0.5,0 1,-0.4 1.4,-0.7 1.1,-1.1 1.9,-2.4 2.8,-3.7 1.2,-1.9 2.2,-3.9 3,-6 0.2,-0.5 0.4,-1 0.8,-1.3 0.4,-0.3 0.9,-0.2 1.3,-0.2 2.2,0 4.3,0 6.5,0 0.8,0 1.7,-0.1 2.5,0.3 0.5,0.3 0.4,1 0.2,1.5 -0.4,1.2 -1,2.3 -1.7,3.4 -1.5,2.3 -3.2,4.3 -4.8,6.5 -0.5,0.6 -1,1.3 -1.1,2.1 -0.1,0.7 0.3,1.3 0.7,1.8 0.9,1 1.9,1.8 2.9,2.8 1.4,1.4 2.8,2.8 3.8,4.6 0.3,0.5 0.6,1.3 0.2,1.8 -0.5,0.7 -1.3,0.9 -2.1,0.9 -2.2,0 -4.4,0 -6.6,0.1 -1.4,0 -2.7,-0.8 -3.7,-1.7 -1.3,-1.2 -2.3,-2.7 -3.6,-3.8 -0.5,-0.4 -1,-0.8 -1.6,-0.8 -0.7,0.1 -1.1,0.7 -1.4,1.3 -0.4,1 -0.5,2 -0.5,3.1 0,0.5 -0.1,1 -0.5,1.4 -0.5,0.4 -1.1,0.5 -1.7,0.5 -1.6,0 -3.1,0.1 -4.7,-0.2 -3.9,-0.7 -7.5,-2.9 -10.1,-5.8 -3,-3.4 -5.3,-7.4 -7.5,-11.4 -1.1,-2.1 -2.1,-4.2 -3.1,-6.4 -0.2,-0.4 -0.4,-1 -0.1,-1.4 0.4,-0.5 1,-0.5 1.6,-0.5 2.1,0 4.2,0 6.4,0 0.8,0 1.6,0.4 1.9,1.2 0.9,2.3 2,4.5 3.3,6.6 0.8,1.3 1.6,2.6 2.7,3.6 0.4,0.4 1,0.8 1.6,0.5 0.5,-0.3 0.7,-1 0.8,-1.5 0.4,-2 0.3,-4 0.2,-6.1 -0.1,-0.9 -0.2,-1.8 -0.7,-2.5 -0.5,-0.7 -1.4,-1 -2.3,-1.2 0.3,-1.1 1.2,-1.5 2.1,-1.7 z"
           id="path935"
           style="fill:#ffffff" />
      </g>
    </g>
  </g>
</svg>
