<?xml version="1.0" encoding="utf-8"?>
<!-- Generator: Adobe Illustrator 21.1.0, SVG Export Plug-In . SVG Version: 6.00 Build 0)  -->
<svg version="1.1" xmlns="http://www.w3.org/2000/svg" xmlns:xlink="http://www.w3.org/1999/xlink" x="0px" y="0px"
	 viewBox="0 0 230 230" style="enable-background:new 0 0 230 230;" xml:space="preserve">
<style type="text/css">
	.st0{display:none;}
	.st1{display:inline;}
	.st2{fill:#671A1D;}
	.st3{fill:#FFFFFF;}
	.st4{fill:none;stroke:#FFFFFF;stroke-width:3;stroke-miterlimit:10;}
	.st5{fill:none;stroke:#671A1D;stroke-width:3;stroke-miterlimit:10;}
	.st6{fill:none;stroke:#671A1D;stroke-width:6;stroke-miterlimit:10;}
	.st7{fill:none;stroke:#FFFFFF;stroke-width:6;stroke-miterlimit:10;}
</style>
<g id="Layer_1_copy_2" class="st0">
	<g>
		<g class="st1">
			<path class="st2" d="M115,108c0,3.8-3.2,7-7,7H7c-3.8,0-7-3.2-7-7V7c0-3.9,3.2-7,7-7h101c3.8,0,7,3.2,7,7V108z"/>
		</g>
		<g class="st1">
			<path class="st3" d="M77.6,50.1L66.7,39.2c-6.1,4.6-18.7,6.3-23,6.9L33.6,83.4l37.3-10.1C71.5,68.9,73.2,56.3,77.6,50.1z"/>
			<polyline class="st4" points="86.5,43.8 78.9,51.4 65.6,38.1 73.2,30.5 			"/>
			
				<ellipse transform="matrix(0.7071 -0.7071 0.7071 0.7071 -29.9258 56.1415)" class="st2" cx="52.8" cy="64.2" rx="5.9" ry="5.9"/>
			<line class="st5" x1="51.6" y1="65.4" x2="32.5" y2="84.5"/>
		</g>
	</g>
	<g>
		<g class="st1">
			<path class="st2" d="M115,108c0,3.8-3.2,7-7,7H7c-3.8,0-7-3.2-7-7V7c0-3.8,3.2-7,7-7h101c3.8,0,7,3.2,7,7V108z"/>
		</g>
		<g class="st1">
			<g>
				<rect x="29.9" y="24" class="st3" width="23.4" height="67"/>
				<path class="st2" d="M41.6,31.8c3.3,0,6,2.7,6,6c0,3.3-2.7,6-6,6c-3.3,0-6-2.7-6-6C35.6,34.5,38.3,31.8,41.6,31.8z"/>
				<g>
					<line class="st5" x1="33.4" y1="64.4" x2="49.8" y2="64.4"/>
					<line class="st5" x1="33.4" y1="70.6" x2="49.8" y2="70.6"/>
					<line class="st5" x1="33.4" y1="76.9" x2="49.8" y2="76.9"/>
				</g>
			</g>
			<g>
				<rect x="61.7" y="24" class="st3" width="23.4" height="67"/>
				<path class="st2" d="M73.4,31.8c3.3,0,6,2.7,6,6c0,3.3-2.7,6-6,6c-3.3,0-6-2.7-6-6C67.4,34.5,70.1,31.8,73.4,31.8z"/>
				<g>
					<line class="st5" x1="65.2" y1="64.4" x2="81.6" y2="64.4"/>
					<line class="st5" x1="65.2" y1="70.6" x2="81.6" y2="70.6"/>
					<line class="st5" x1="65.2" y1="76.9" x2="81.6" y2="76.9"/>
				</g>
			</g>
		</g>
	</g>
	<g class="st1">
		<g>
			<path class="st2" d="M230,216c0,7.7-6.3,14-14,14H14c-7.7,0-14-6.3-14-14V14C0,6.3,6.3,0,14,0h202c7.7,0,14,6.3,14,14V216z"/>
		</g>
		<g>
			<polygon class="st3" points="128.4,168.6 128.4,88.2 88.2,88.2 88.2,101.6 101.6,101.6 101.6,168.6 88.2,168.6 88.2,182 
				141.8,182 141.8,168.6 			"/>
			<ellipse class="st3" cx="115" cy="61.4" rx="13.4" ry="13.4"/>
		</g>
	</g>
	<g>
		<g class="st1">
			<path class="st2" d="M115,108c0,3.8-3.2,7-7,7H7c-3.8,0-7-3.2-7-7V7c0-3.8,3.2-7,7-7h101c3.8,0,7,3.2,7,7V108z"/>
		</g>
		<g class="st1">
			<path class="st3" d="M26.8,87.5h13.7c1.7,0,3-1.3,3-3V53.8c0-1.7-1.3-3-3-3H26.8c-1.7,0-3,1.3-3,3v30.7
				C23.8,86.2,25.2,87.5,26.8,87.5z"/>
			<path class="st3" d="M45.5,87c0.5,0.4,1.3,0.6,2,0.6h27.6c0.1,0,0.1,0,0.2,0c3.1-0.5,4.7-3.4,4.2-7.7c0-0.3,0-0.4,0.2-0.6
				c2.5-3,1.6-6.5,1-7.9c-0.1-0.3-0.1-0.6,0.2-0.8c3.4-4.1,2-7.6,1.2-8.9c-0.2-0.3-0.2-0.6,0-0.8c2.7-3.6,0.4-8,0.2-8.5
				c-1.8-4.1-7.5-3.8-11.7-3.8c-0.9,0-1.8,0.1-2.4,0c-1.9-0.1-2.4-0.6-2.4-0.8c-0.2-0.3,0-0.8,0.3-1.5c0.2-0.3,0.4-0.8,0.7-1.3
				c1.4-2.6,3.8-7,4.5-10.1c0.5-2.2,0.1-5.1-1.3-7.4c-1.1-1.9-2.5-3.1-4.1-3.4c-0.9-0.2-1.8,0-2.5,0.6c-1.7,1.4-2,4.7-2,5
				c-0.7,5.5-5.5,10.5-7.8,12.7c-0.3,0.3-0.5,0.6-0.8,0.8c-1.2,1.3-1.9,3.1-2.7,5c-0.5,1.3-1,2.7-1.6,3.8c-0.9,1.5-2.2,2.8-2.9,3.7
				V87z"/>
			<g>
				<circle class="st3" cx="86.2" cy="52.6" r="5"/>
				
					<rect x="57.5" y="47.6" transform="matrix(-1 -4.486379e-11 4.486379e-11 -1 143.6815 105.2078)" class="st3" width="28.7" height="10"/>
			</g>
			<g>
				<circle class="st3" cx="84.6" cy="62.6" r="5"/>
				
					<rect x="55.9" y="57.6" transform="matrix(-1 -4.499036e-11 4.499036e-11 -1 140.4923 125.1721)" class="st3" width="28.7" height="10"/>
			</g>
			<g>
				<circle class="st3" cx="83" cy="72.6" r="5"/>
				
					<rect x="54.3" y="67.6" transform="matrix(-1 -4.499036e-11 4.499036e-11 -1 137.3032 145.1364)" class="st3" width="28.7" height="10"/>
			</g>
			<g>
				<circle class="st3" cx="80.5" cy="82.6" r="5"/>
				
					<rect x="51.8" y="77.6" transform="matrix(-1 -4.486379e-11 4.486379e-11 -1 132.3431 165.1007)" class="st3" width="28.7" height="10"/>
			</g>
			<line class="st5" x1="44.5" y1="89" x2="44.5" y2="36.6"/>
		</g>
	</g>
	<g>
		<g class="st1">
			<path class="st2" d="M115,108c0,3.8-3.2,7-7,7H7c-3.8,0-7-3.2-7-7V7c0-3.9,3.2-7,7-7h101c3.8,0,7,3.2,7,7V108z"/>
		</g>
		<g class="st1">
			<path class="st3" d="M82.5,79h-50c-2.8,0-5-2.2-5-5V41c0-2.8,2.2-5,5-5h50c2.8,0,5,2.2,5,5V74C87.5,76.7,85.2,79,82.5,79z"/>
			<path class="st2" d="M43.3,52.9h-6.8c-1.1,0-2-0.9-2-2v-5.2c0-1.1,0.9-2,2-2h6.8c1.1,0,2,0.9,2,2v5.2
				C45.3,52,44.4,52.9,43.3,52.9z"/>
			<line class="st5" x1="80.5" y1="61.6" x2="34.5" y2="61.6"/>
			<line class="st5" x1="80.5" y1="69" x2="34.5" y2="69"/>
		</g>
	</g>
	<g>
		<g class="st1">
			<path class="st2" d="M115,108c0,3.8-3.2,7-7,7H7c-3.8,0-7-3.2-7-7V7c0-3.8,3.2-7,7-7h101c3.8,0,7,3.2,7,7V108z"/>
		</g>
		<g class="st1">
			<g>
				<polygon class="st3" points="78,30 78,80.9 42.7,65.8 42.7,45.1 				"/>
				<polygon class="st3" points="30.9,69.4 41,69.4 46.7,85 36.6,85 				"/>
				<g>
					<circle class="st3" cx="32.6" cy="55.5" r="10.5"/>
					<rect x="32.6" y="44.9" class="st3" width="15.1" height="21.1"/>
				</g>
				<line class="st5" x1="42.7" y1="69" x2="42.7" y2="41.9"/>
			</g>
			<g>
				<line class="st4" x1="92.9" y1="56.4" x2="85.6" y2="56.4"/>
				<line class="st4" x1="91.3" y1="47.5" x2="85.6" y2="50.3"/>
				<line class="st4" x1="85.6" y1="62.5" x2="91.3" y2="65.3"/>
			</g>
		</g>
	</g>
</g>
<g id="Layer_1_copy" class="st0">
	<g>
		<g class="st1">
			<path class="st2" d="M115,108c0,3.8-3.2,7-7,7H7c-3.8,0-7-3.2-7-7V7c0-3.9,3.2-7,7-7h101c3.8,0,7,3.2,7,7V108z"/>
		</g>
		<g class="st1">
			<path class="st3" d="M77.6,50.1L66.7,39.2c-6.1,4.6-18.7,6.3-23,6.9L33.6,83.4l37.3-10.1C71.5,68.9,73.2,56.3,77.6,50.1z"/>
			<polyline class="st4" points="86.5,43.8 78.9,51.4 65.6,38.1 73.2,30.5 			"/>
			
				<ellipse transform="matrix(0.7071 -0.7071 0.7071 0.7071 -29.9258 56.1415)" class="st2" cx="52.8" cy="64.2" rx="5.9" ry="5.9"/>
			<line class="st5" x1="51.6" y1="65.4" x2="32.5" y2="84.5"/>
		</g>
	</g>
	<g class="st1">
		<g>
			<path class="st2" d="M230,216c0,7.7-6.3,14-14,14H14c-7.7,0-14-6.3-14-14V14C0,6.3,6.3,0,14,0h202c7.7,0,14,6.3,14,14V216z"/>
		</g>
		<g>
			<g>
				<rect x="59.8" y="48" class="st3" width="46.9" height="134"/>
				<path class="st2" d="M83.2,63.6c6.6,0,12,5.4,12,12c0,6.7-5.4,12-12,12c-6.6,0-12-5.3-12-12C71.2,69,76.6,63.6,83.2,63.6z"/>
				<g>
					<line class="st6" x1="66.9" y1="128.8" x2="99.6" y2="128.8"/>
					<line class="st6" x1="66.9" y1="141.3" x2="99.6" y2="141.3"/>
					<line class="st6" x1="66.9" y1="153.7" x2="99.6" y2="153.7"/>
				</g>
			</g>
			<g>
				<rect x="123.3" y="48" class="st3" width="46.9" height="134"/>
				<path class="st2" d="M146.8,63.6c6.6,0,12,5.4,12,12c0,6.7-5.4,12-12,12c-6.6,0-12-5.3-12-12C134.8,69,140.2,63.6,146.8,63.6z"
					/>
				<g>
					<line class="st6" x1="130.4" y1="128.8" x2="163.1" y2="128.8"/>
					<line class="st6" x1="130.4" y1="141.3" x2="163.1" y2="141.3"/>
					<line class="st6" x1="130.4" y1="153.7" x2="163.1" y2="153.7"/>
				</g>
			</g>
		</g>
	</g>
	<g>
		<g class="st1">
			<path class="st2" d="M115,108c0,3.8-3.2,7-7,7H7c-3.8,0-7-3.2-7-7V7c0-3.9,3.2-7,7-7h101c3.8,0,7,3.2,7,7V108z"/>
		</g>
		<g class="st1">
			<polygon class="st3" points="64.2,84.3 64.2,44.1 44.1,44.1 44.1,50.8 50.8,50.8 50.8,84.3 44.1,84.3 44.1,91 70.9,91 70.9,84.3 
							"/>
			<circle class="st3" cx="57.5" cy="30.7" r="6.7"/>
		</g>
	</g>
	<g>
		<g class="st1">
			<path class="st2" d="M115,108c0,3.8-3.2,7-7,7H7c-3.8,0-7-3.2-7-7V7c0-3.8,3.2-7,7-7h101c3.8,0,7,3.2,7,7V108z"/>
		</g>
		<g class="st1">
			<path class="st3" d="M26.8,87.5h13.7c1.7,0,3-1.3,3-3V53.8c0-1.7-1.3-3-3-3H26.8c-1.7,0-3,1.3-3,3v30.7
				C23.8,86.2,25.2,87.5,26.8,87.5z"/>
			<path class="st3" d="M45.5,87c0.5,0.4,1.3,0.6,2,0.6h27.6c0.1,0,0.1,0,0.2,0c3.1-0.5,4.7-3.4,4.2-7.7c0-0.3,0-0.4,0.2-0.6
				c2.5-3,1.6-6.5,1-7.9c-0.1-0.3-0.1-0.6,0.2-0.8c3.4-4.1,2-7.6,1.2-8.9c-0.2-0.3-0.2-0.6,0-0.8c2.7-3.6,0.4-8,0.2-8.5
				c-1.8-4.1-7.5-3.8-11.7-3.8c-0.9,0-1.8,0.1-2.4,0c-1.9-0.1-2.4-0.6-2.4-0.8c-0.2-0.3,0-0.8,0.3-1.5c0.2-0.3,0.4-0.8,0.7-1.3
				c1.4-2.6,3.8-7,4.5-10.1c0.5-2.2,0.1-5.1-1.3-7.4c-1.1-1.9-2.5-3.1-4.1-3.4c-0.9-0.2-1.8,0-2.5,0.6c-1.7,1.4-2,4.7-2,5
				c-0.7,5.5-5.5,10.5-7.8,12.7c-0.3,0.3-0.5,0.6-0.8,0.8c-1.2,1.3-1.9,3.1-2.7,5c-0.5,1.3-1,2.7-1.6,3.8c-0.9,1.5-2.2,2.8-2.9,3.7
				V87z"/>
			<g>
				<circle class="st3" cx="86.2" cy="52.6" r="5"/>
				
					<rect x="57.5" y="47.6" transform="matrix(-1 -4.486379e-11 4.486379e-11 -1 143.6815 105.2078)" class="st3" width="28.7" height="10"/>
			</g>
			<g>
				<circle class="st3" cx="84.6" cy="62.6" r="5"/>
				
					<rect x="55.9" y="57.6" transform="matrix(-1 -4.499036e-11 4.499036e-11 -1 140.4923 125.1721)" class="st3" width="28.7" height="10"/>
			</g>
			<g>
				<circle class="st3" cx="83" cy="72.6" r="5"/>
				
					<rect x="54.3" y="67.6" transform="matrix(-1 -4.499036e-11 4.499036e-11 -1 137.3032 145.1364)" class="st3" width="28.7" height="10"/>
			</g>
			<g>
				<circle class="st3" cx="80.5" cy="82.6" r="5"/>
				
					<rect x="51.8" y="77.6" transform="matrix(-1 -4.486379e-11 4.486379e-11 -1 132.3431 165.1007)" class="st3" width="28.7" height="10"/>
			</g>
			<line class="st5" x1="44.5" y1="89" x2="44.5" y2="36.6"/>
		</g>
	</g>
	<g>
		<g class="st1">
			<path class="st2" d="M115,108c0,3.8-3.2,7-7,7H7c-3.8,0-7-3.2-7-7V7c0-3.9,3.2-7,7-7h101c3.8,0,7,3.2,7,7V108z"/>
		</g>
		<g class="st1">
			<path class="st3" d="M82.5,79h-50c-2.8,0-5-2.2-5-5V41c0-2.8,2.2-5,5-5h50c2.8,0,5,2.2,5,5V74C87.5,76.7,85.2,79,82.5,79z"/>
			<path class="st2" d="M43.3,52.9h-6.8c-1.1,0-2-0.9-2-2v-5.2c0-1.1,0.9-2,2-2h6.8c1.1,0,2,0.9,2,2v5.2
				C45.3,52,44.4,52.9,43.3,52.9z"/>
			<line class="st5" x1="80.5" y1="61.6" x2="34.5" y2="61.6"/>
			<line class="st5" x1="80.5" y1="69" x2="34.5" y2="69"/>
		</g>
	</g>
	<g>
		<g class="st1">
			<path class="st2" d="M115,108c0,3.8-3.2,7-7,7H7c-3.8,0-7-3.2-7-7V7c0-3.8,3.2-7,7-7h101c3.8,0,7,3.2,7,7V108z"/>
		</g>
		<g class="st1">
			<g>
				<polygon class="st3" points="78,30 78,80.9 42.7,65.8 42.7,45.1 				"/>
				<polygon class="st3" points="30.9,69.4 41,69.4 46.7,85 36.6,85 				"/>
				<g>
					<circle class="st3" cx="32.6" cy="55.5" r="10.5"/>
					<rect x="32.6" y="44.9" class="st3" width="15.1" height="21.1"/>
				</g>
				<line class="st5" x1="42.7" y1="69" x2="42.7" y2="41.9"/>
			</g>
			<g>
				<line class="st4" x1="92.9" y1="56.4" x2="85.6" y2="56.4"/>
				<line class="st4" x1="91.3" y1="47.5" x2="85.6" y2="50.3"/>
				<line class="st4" x1="85.6" y1="62.5" x2="91.3" y2="65.3"/>
			</g>
		</g>
	</g>
</g>
<g id="Layer_1">
	<g>
		<g>
			<path class="st2" d="M230,216c0,7.7-6.3,14-14,14H14c-7.7,0-14-6.3-14-14V14C0,6.3,6.3,0,14,0h202c7.7,0,14,6.3,14,14V216z"/>
		</g>
		<g>
			<path class="st3" d="M155.2,100.1l-21.7-21.7C121.3,87.6,96.2,91,87.4,92.1l-20.2,74.6l74.6-20.2
				C143,137.8,146.4,112.7,155.2,100.1z"/>
			<polyline class="st7" points="173,87.6 157.9,102.8 131.2,76.1 146.4,61 			"/>
			
				<ellipse transform="matrix(0.7071 -0.7071 0.7071 0.7071 -59.8515 112.283)" class="st2" cx="105.6" cy="128.4" rx="11.9" ry="11.9"/>
			<line class="st6" x1="103.3" y1="130.7" x2="65" y2="169"/>
		</g>
	</g>
	<g class="st0">
		<g class="st1">
			<path class="st2" d="M115,108c0,3.8-3.2,7-7,7H7c-3.8,0-7-3.2-7-7V7c0-3.8,3.2-7,7-7h101c3.8,0,7,3.2,7,7V108z"/>
		</g>
		<g class="st1">
			<g>
				<rect x="29.9" y="24" class="st3" width="23.4" height="67"/>
				<path class="st2" d="M41.6,31.8c3.3,0,6,2.7,6,6c0,3.3-2.7,6-6,6c-3.3,0-6-2.7-6-6C35.6,34.5,38.3,31.8,41.6,31.8z"/>
				<g>
					<line class="st5" x1="33.4" y1="64.4" x2="49.8" y2="64.4"/>
					<line class="st5" x1="33.4" y1="70.6" x2="49.8" y2="70.6"/>
					<line class="st5" x1="33.4" y1="76.9" x2="49.8" y2="76.9"/>
				</g>
			</g>
			<g>
				<rect x="61.7" y="24" class="st3" width="23.4" height="67"/>
				<path class="st2" d="M73.4,31.8c3.3,0,6,2.7,6,6c0,3.3-2.7,6-6,6c-3.3,0-6-2.7-6-6C67.4,34.5,70.1,31.8,73.4,31.8z"/>
				<g>
					<line class="st5" x1="65.2" y1="64.4" x2="81.6" y2="64.4"/>
					<line class="st5" x1="65.2" y1="70.6" x2="81.6" y2="70.6"/>
					<line class="st5" x1="65.2" y1="76.9" x2="81.6" y2="76.9"/>
				</g>
			</g>
		</g>
	</g>
	<g class="st0">
		<g class="st1">
			<path class="st2" d="M115,108c0,3.8-3.2,7-7,7H7c-3.8,0-7-3.2-7-7V7c0-3.9,3.2-7,7-7h101c3.8,0,7,3.2,7,7V108z"/>
		</g>
		<g class="st1">
			<polygon class="st3" points="64.2,84.3 64.2,44.1 44.1,44.1 44.1,50.8 50.8,50.8 50.8,84.3 44.1,84.3 44.1,91 70.9,91 70.9,84.3 
							"/>
			<circle class="st3" cx="57.5" cy="30.7" r="6.7"/>
		</g>
	</g>
	<g class="st0">
		<g class="st1">
			<path class="st2" d="M115,108c0,3.8-3.2,7-7,7H7c-3.8,0-7-3.2-7-7V7c0-3.8,3.2-7,7-7h101c3.8,0,7,3.2,7,7V108z"/>
		</g>
		<g class="st1">
			<path class="st3" d="M26.8,87.5h13.7c1.7,0,3-1.3,3-3V53.8c0-1.7-1.3-3-3-3H26.8c-1.7,0-3,1.3-3,3v30.7
				C23.8,86.2,25.2,87.5,26.8,87.5z"/>
			<path class="st3" d="M45.5,87c0.5,0.4,1.3,0.6,2,0.6h27.6c0.1,0,0.1,0,0.2,0c3.1-0.5,4.7-3.4,4.2-7.7c0-0.3,0-0.4,0.2-0.6
				c2.5-3,1.6-6.5,1-7.9c-0.1-0.3-0.1-0.6,0.2-0.8c3.4-4.1,2-7.6,1.2-8.9c-0.2-0.3-0.2-0.6,0-0.8c2.7-3.6,0.4-8,0.2-8.5
				c-1.8-4.1-7.5-3.8-11.7-3.8c-0.9,0-1.8,0.1-2.4,0c-1.9-0.1-2.4-0.6-2.4-0.8c-0.2-0.3,0-0.8,0.3-1.5c0.2-0.3,0.4-0.8,0.7-1.3
				c1.4-2.6,3.8-7,4.5-10.1c0.5-2.2,0.1-5.1-1.3-7.4c-1.1-1.9-2.5-3.1-4.1-3.4c-0.9-0.2-1.8,0-2.5,0.6c-1.7,1.4-2,4.7-2,5
				c-0.7,5.5-5.5,10.5-7.8,12.7c-0.3,0.3-0.5,0.6-0.8,0.8c-1.2,1.3-1.9,3.1-2.7,5c-0.5,1.3-1,2.7-1.6,3.8c-0.9,1.5-2.2,2.8-2.9,3.7
				V87z"/>
			<g>
				<circle class="st3" cx="86.2" cy="52.6" r="5"/>
				
					<rect x="57.5" y="47.6" transform="matrix(-1 -4.486379e-11 4.486379e-11 -1 143.6815 105.2078)" class="st3" width="28.7" height="10"/>
			</g>
			<g>
				<circle class="st3" cx="84.6" cy="62.6" r="5"/>
				
					<rect x="55.9" y="57.6" transform="matrix(-1 -4.499036e-11 4.499036e-11 -1 140.4923 125.1721)" class="st3" width="28.7" height="10"/>
			</g>
			<g>
				<circle class="st3" cx="83" cy="72.6" r="5"/>
				
					<rect x="54.3" y="67.6" transform="matrix(-1 -4.499036e-11 4.499036e-11 -1 137.3032 145.1364)" class="st3" width="28.7" height="10"/>
			</g>
			<g>
				<circle class="st3" cx="80.5" cy="82.6" r="5"/>
				
					<rect x="51.8" y="77.6" transform="matrix(-1 -4.486379e-11 4.486379e-11 -1 132.3431 165.1007)" class="st3" width="28.7" height="10"/>
			</g>
			<line class="st5" x1="44.5" y1="89" x2="44.5" y2="36.6"/>
		</g>
	</g>
	<g class="st0">
		<g class="st1">
			<path class="st2" d="M115,108c0,3.8-3.2,7-7,7H7c-3.8,0-7-3.2-7-7V7c0-3.9,3.2-7,7-7h101c3.8,0,7,3.2,7,7V108z"/>
		</g>
		<g class="st1">
			<path class="st3" d="M82.5,79h-50c-2.8,0-5-2.2-5-5V41c0-2.8,2.2-5,5-5h50c2.8,0,5,2.2,5,5V74C87.5,76.7,85.2,79,82.5,79z"/>
			<path class="st2" d="M43.3,52.9h-6.8c-1.1,0-2-0.9-2-2v-5.2c0-1.1,0.9-2,2-2h6.8c1.1,0,2,0.9,2,2v5.2
				C45.3,52,44.4,52.9,43.3,52.9z"/>
			<line class="st5" x1="80.5" y1="61.6" x2="34.5" y2="61.6"/>
			<line class="st5" x1="80.5" y1="69" x2="34.5" y2="69"/>
		</g>
	</g>
	<g class="st0">
		<g class="st1">
			<path class="st2" d="M115,108c0,3.8-3.2,7-7,7H7c-3.8,0-7-3.2-7-7V7c0-3.8,3.2-7,7-7h101c3.8,0,7,3.2,7,7V108z"/>
		</g>
		<g class="st1">
			<g>
				<polygon class="st3" points="78,30 78,80.9 42.7,65.8 42.7,45.1 				"/>
				<polygon class="st3" points="30.9,69.4 41,69.4 46.7,85 36.6,85 				"/>
				<g>
					<circle class="st3" cx="32.6" cy="55.5" r="10.5"/>
					<rect x="32.6" y="44.9" class="st3" width="15.1" height="21.1"/>
				</g>
				<line class="st5" x1="42.7" y1="69" x2="42.7" y2="41.9"/>
			</g>
			<g>
				<line class="st4" x1="92.9" y1="56.4" x2="85.6" y2="56.4"/>
				<line class="st4" x1="91.3" y1="47.5" x2="85.6" y2="50.3"/>
				<line class="st4" x1="85.6" y1="62.5" x2="91.3" y2="65.3"/>
			</g>
		</g>
	</g>
</g>
<g id="Layer_1_copy_5" class="st0">
	<g>
		<g class="st1">
			<path class="st2" d="M115,108c0,3.8-3.2,7-7,7H7c-3.8,0-7-3.2-7-7V7c0-3.9,3.2-7,7-7h101c3.8,0,7,3.2,7,7V108z"/>
		</g>
		<g class="st1">
			<path class="st3" d="M77.6,50.1L66.7,39.2c-6.1,4.6-18.7,6.3-23,6.9L33.6,83.4l37.3-10.1C71.5,68.9,73.2,56.3,77.6,50.1z"/>
			<polyline class="st4" points="86.5,43.8 78.9,51.4 65.6,38.1 73.2,30.5 			"/>
			
				<ellipse transform="matrix(0.7071 -0.7071 0.7071 0.7071 -29.9258 56.1415)" class="st2" cx="52.8" cy="64.2" rx="5.9" ry="5.9"/>
			<line class="st5" x1="51.6" y1="65.4" x2="32.5" y2="84.5"/>
		</g>
	</g>
	<g>
		<g class="st1">
			<path class="st2" d="M115,108c0,3.8-3.2,7-7,7H7c-3.8,0-7-3.2-7-7V7c0-3.8,3.2-7,7-7h101c3.8,0,7,3.2,7,7V108z"/>
		</g>
		<g class="st1">
			<g>
				<rect x="29.9" y="24" class="st3" width="23.4" height="67"/>
				<path class="st2" d="M41.6,31.8c3.3,0,6,2.7,6,6c0,3.3-2.7,6-6,6c-3.3,0-6-2.7-6-6C35.6,34.5,38.3,31.8,41.6,31.8z"/>
				<g>
					<line class="st5" x1="33.4" y1="64.4" x2="49.8" y2="64.4"/>
					<line class="st5" x1="33.4" y1="70.6" x2="49.8" y2="70.6"/>
					<line class="st5" x1="33.4" y1="76.9" x2="49.8" y2="76.9"/>
				</g>
			</g>
			<g>
				<rect x="61.7" y="24" class="st3" width="23.4" height="67"/>
				<path class="st2" d="M73.4,31.8c3.3,0,6,2.7,6,6c0,3.3-2.7,6-6,6c-3.3,0-6-2.7-6-6C67.4,34.5,70.1,31.8,73.4,31.8z"/>
				<g>
					<line class="st5" x1="65.2" y1="64.4" x2="81.6" y2="64.4"/>
					<line class="st5" x1="65.2" y1="70.6" x2="81.6" y2="70.6"/>
					<line class="st5" x1="65.2" y1="76.9" x2="81.6" y2="76.9"/>
				</g>
			</g>
		</g>
	</g>
	<g>
		<g class="st1">
			<path class="st2" d="M115,108c0,3.8-3.2,7-7,7H7c-3.8,0-7-3.2-7-7V7c0-3.9,3.2-7,7-7h101c3.8,0,7,3.2,7,7V108z"/>
		</g>
		<g class="st1">
			<polygon class="st3" points="64.2,84.3 64.2,44.1 44.1,44.1 44.1,50.8 50.8,50.8 50.8,84.3 44.1,84.3 44.1,91 70.9,91 70.9,84.3 
							"/>
			<circle class="st3" cx="57.5" cy="30.7" r="6.7"/>
		</g>
	</g>
	<g>
		<g class="st1">
			<path class="st2" d="M115,108c0,3.8-3.2,7-7,7H7c-3.8,0-7-3.2-7-7V7c0-3.8,3.2-7,7-7h101c3.8,0,7,3.2,7,7V108z"/>
		</g>
		<g class="st1">
			<path class="st3" d="M26.8,87.5h13.7c1.7,0,3-1.3,3-3V53.8c0-1.7-1.3-3-3-3H26.8c-1.7,0-3,1.3-3,3v30.7
				C23.8,86.2,25.2,87.5,26.8,87.5z"/>
			<path class="st3" d="M45.5,87c0.5,0.4,1.3,0.6,2,0.6h27.6c0.1,0,0.1,0,0.2,0c3.1-0.5,4.7-3.4,4.2-7.7c0-0.3,0-0.4,0.2-0.6
				c2.5-3,1.6-6.5,1-7.9c-0.1-0.3-0.1-0.6,0.2-0.8c3.4-4.1,2-7.6,1.2-8.9c-0.2-0.3-0.2-0.6,0-0.8c2.7-3.6,0.4-8,0.2-8.5
				c-1.8-4.1-7.5-3.8-11.7-3.8c-0.9,0-1.8,0.1-2.4,0c-1.9-0.1-2.4-0.6-2.4-0.8c-0.2-0.3,0-0.8,0.3-1.5c0.2-0.3,0.4-0.8,0.7-1.3
				c1.4-2.6,3.8-7,4.5-10.1c0.5-2.2,0.1-5.1-1.3-7.4c-1.1-1.9-2.5-3.1-4.1-3.4c-0.9-0.2-1.8,0-2.5,0.6c-1.7,1.4-2,4.7-2,5
				c-0.7,5.5-5.5,10.5-7.8,12.7c-0.3,0.3-0.5,0.6-0.8,0.8c-1.2,1.3-1.9,3.1-2.7,5c-0.5,1.3-1,2.7-1.6,3.8c-0.9,1.5-2.2,2.8-2.9,3.7
				V87z"/>
			<g>
				<circle class="st3" cx="86.2" cy="52.6" r="5"/>
				
					<rect x="57.5" y="47.6" transform="matrix(-1 -4.486379e-11 4.486379e-11 -1 143.6815 105.2078)" class="st3" width="28.7" height="10"/>
			</g>
			<g>
				<circle class="st3" cx="84.6" cy="62.6" r="5"/>
				
					<rect x="55.9" y="57.6" transform="matrix(-1 -4.499036e-11 4.499036e-11 -1 140.4923 125.1721)" class="st3" width="28.7" height="10"/>
			</g>
			<g>
				<circle class="st3" cx="83" cy="72.6" r="5"/>
				
					<rect x="54.3" y="67.6" transform="matrix(-1 -4.499036e-11 4.499036e-11 -1 137.3032 145.1364)" class="st3" width="28.7" height="10"/>
			</g>
			<g>
				<circle class="st3" cx="80.5" cy="82.6" r="5"/>
				
					<rect x="51.8" y="77.6" transform="matrix(-1 -4.486379e-11 4.486379e-11 -1 132.3431 165.1007)" class="st3" width="28.7" height="10"/>
			</g>
			<line class="st5" x1="44.5" y1="89" x2="44.5" y2="36.6"/>
		</g>
	</g>
	<g>
		<g class="st1">
			<path class="st2" d="M115,108c0,3.8-3.2,7-7,7H7c-3.8,0-7-3.2-7-7V7c0-3.9,3.2-7,7-7h101c3.8,0,7,3.2,7,7V108z"/>
		</g>
		<g class="st1">
			<path class="st3" d="M82.5,79h-50c-2.8,0-5-2.2-5-5V41c0-2.8,2.2-5,5-5h50c2.8,0,5,2.2,5,5V74C87.5,76.7,85.2,79,82.5,79z"/>
			<path class="st2" d="M43.3,52.9h-6.8c-1.1,0-2-0.9-2-2v-5.2c0-1.1,0.9-2,2-2h6.8c1.1,0,2,0.9,2,2v5.2
				C45.3,52,44.4,52.9,43.3,52.9z"/>
			<line class="st5" x1="80.5" y1="61.6" x2="34.5" y2="61.6"/>
			<line class="st5" x1="80.5" y1="69" x2="34.5" y2="69"/>
		</g>
	</g>
	<g class="st1">
		<g>
			<path class="st2" d="M230,216c0,7.7-6.3,14-14,14H14c-7.7,0-14-6.3-14-14V14C0,6.3,6.3,0,14,0h202c7.7,0,14,6.3,14,14V216z"/>
		</g>
		<g>
			<g>
				<polygon class="st3" points="156,60 156,161.8 85.5,131.7 85.5,90.2 				"/>
				<polygon class="st3" points="61.8,138.8 82,138.8 93.5,170 73.3,170 				"/>
				<g>
					<circle class="st3" cx="65.3" cy="110.9" r="21.1"/>
					<rect x="65.3" y="89.8" class="st3" width="30.2" height="42.2"/>
				</g>
				<line class="st6" x1="85.4" y1="138" x2="85.4" y2="83.8"/>
			</g>
			<g>
				<line class="st7" x1="185.8" y1="112.8" x2="171.2" y2="112.8"/>
				<line class="st7" x1="182.6" y1="95.1" x2="171.2" y2="100.5"/>
				<line class="st7" x1="171.2" y1="125.1" x2="182.6" y2="130.5"/>
			</g>
		</g>
	</g>
</g>
<g id="Layer_1_copy_3" class="st0">
	<g>
		<g class="st1">
			<path class="st2" d="M115,108c0,3.8-3.2,7-7,7H7c-3.8,0-7-3.2-7-7V7c0-3.9,3.2-7,7-7h101c3.8,0,7,3.2,7,7V108z"/>
		</g>
		<g class="st1">
			<path class="st3" d="M77.6,50.1L66.7,39.2c-6.1,4.6-18.7,6.3-23,6.9L33.6,83.4l37.3-10.1C71.5,68.9,73.2,56.3,77.6,50.1z"/>
			<polyline class="st4" points="86.5,43.8 78.9,51.4 65.6,38.1 73.2,30.5 			"/>
			
				<ellipse transform="matrix(0.7071 -0.7071 0.7071 0.7071 -29.9258 56.1415)" class="st2" cx="52.8" cy="64.2" rx="5.9" ry="5.9"/>
			<line class="st5" x1="51.6" y1="65.4" x2="32.5" y2="84.5"/>
		</g>
	</g>
	<g>
		<g class="st1">
			<path class="st2" d="M115,108c0,3.8-3.2,7-7,7H7c-3.8,0-7-3.2-7-7V7c0-3.8,3.2-7,7-7h101c3.8,0,7,3.2,7,7V108z"/>
		</g>
		<g class="st1">
			<g>
				<rect x="29.9" y="24" class="st3" width="23.4" height="67"/>
				<path class="st2" d="M41.6,31.8c3.3,0,6,2.7,6,6c0,3.3-2.7,6-6,6c-3.3,0-6-2.7-6-6C35.6,34.5,38.3,31.8,41.6,31.8z"/>
				<g>
					<line class="st5" x1="33.4" y1="64.4" x2="49.8" y2="64.4"/>
					<line class="st5" x1="33.4" y1="70.6" x2="49.8" y2="70.6"/>
					<line class="st5" x1="33.4" y1="76.9" x2="49.8" y2="76.9"/>
				</g>
			</g>
			<g>
				<rect x="61.7" y="24" class="st3" width="23.4" height="67"/>
				<path class="st2" d="M73.4,31.8c3.3,0,6,2.7,6,6c0,3.3-2.7,6-6,6c-3.3,0-6-2.7-6-6C67.4,34.5,70.1,31.8,73.4,31.8z"/>
				<g>
					<line class="st5" x1="65.2" y1="64.4" x2="81.6" y2="64.4"/>
					<line class="st5" x1="65.2" y1="70.6" x2="81.6" y2="70.6"/>
					<line class="st5" x1="65.2" y1="76.9" x2="81.6" y2="76.9"/>
				</g>
			</g>
		</g>
	</g>
	<g>
		<g class="st1">
			<path class="st2" d="M115,108c0,3.8-3.2,7-7,7H7c-3.8,0-7-3.2-7-7V7c0-3.9,3.2-7,7-7h101c3.8,0,7,3.2,7,7V108z"/>
		</g>
		<g class="st1">
			<polygon class="st3" points="64.2,84.3 64.2,44.1 44.1,44.1 44.1,50.8 50.8,50.8 50.8,84.3 44.1,84.3 44.1,91 70.9,91 70.9,84.3 
							"/>
			<circle class="st3" cx="57.5" cy="30.7" r="6.7"/>
		</g>
	</g>
	<g class="st1">
		<g>
			<path class="st2" d="M230,216c0,7.7-6.3,14-14,14H14c-7.7,0-14-6.3-14-14V14C0,6.3,6.3,0,14,0h202c7.7,0,14,6.3,14,14V216z"/>
		</g>
		<g>
			<path class="st3" d="M50.6,175.1H84c1.7,0,3-1.3,3-3v-67.4c0-1.7-1.3-3-3-3H50.6c-1.7,0-3,1.3-3,3v67.4
				C47.6,173.7,49,175.1,50.6,175.1z"/>
			<path class="st3" d="M91,173.9c1.1,0.8,2.5,1.2,3.9,1.2h55.2c0.2,0,0.2,0,0.3,0c6.3-1,9.4-6.9,8.3-15.4c0-0.5,0-0.8,0.3-1.2
				c5-6,3.1-13,2-15.7c-0.2-0.5-0.2-1.2,0.3-1.5c6.7-8.2,3.9-15.2,2.4-17.9c-0.3-0.5-0.3-1.2,0-1.7c5.5-7.2,0.8-16.1,0.3-17.1
				c-3.6-8.2-15.1-7.7-23.4-7.5c-1.9,0-3.6,0.2-4.9,0c-3.8-0.2-4.7-1.2-4.9-1.5c-0.3-0.5,0-1.5,0.6-3c0.3-0.7,0.8-1.5,1.4-2.5
				c2.8-5.2,7.5-14.1,9.1-20.2c1.1-4.3,0.2-10.2-2.5-14.9c-2.2-3.8-5-6.2-8.2-6.9c-1.9-0.3-3.6,0-5,1.2c-3.4,2.8-3.9,9.4-3.9,10
				c-1.4,11-11,20.9-15.5,25.4c-0.6,0.7-1.1,1.2-1.6,1.5c-2.4,2.5-3.8,6.2-5.3,10c-1.1,2.7-2,5.4-3.3,7.5c-1.7,3-4.4,5.7-5.8,7.4
				V173.9z"/>
			<g>
				<circle class="st3" cx="172.4" cy="105.2" r="10"/>
				
					<rect x="115" y="95.2" transform="matrix(-1 -4.486379e-11 4.486379e-11 -1 287.363 210.4156)" class="st3" width="57.4" height="20"/>
			</g>
			<g>
				<circle class="st3" cx="169.2" cy="125.2" r="10"/>
				
					<rect x="111.8" y="115.2" transform="matrix(-1 -4.499036e-11 4.499036e-11 -1 280.9847 250.3442)" class="st3" width="57.4" height="20"/>
			</g>
			<g>
				<circle class="st3" cx="166" cy="145.1" r="10"/>
				
					<rect x="108.6" y="135.2" transform="matrix(-1 -4.499036e-11 4.499036e-11 -1 274.6064 290.2728)" class="st3" width="57.4" height="20"/>
			</g>
			<g>
				<circle class="st3" cx="161" cy="165.1" r="10"/>
				
					<rect x="103.6" y="155.1" transform="matrix(-1 -4.486379e-11 4.486379e-11 -1 264.6862 330.2014)" class="st3" width="57.4" height="20"/>
			</g>
			<line class="st6" x1="89" y1="178" x2="89" y2="73.2"/>
		</g>
	</g>
	<g>
		<g class="st1">
			<path class="st2" d="M115,108c0,3.8-3.2,7-7,7H7c-3.8,0-7-3.2-7-7V7c0-3.9,3.2-7,7-7h101c3.8,0,7,3.2,7,7V108z"/>
		</g>
		<g class="st1">
			<path class="st3" d="M82.5,79h-50c-2.8,0-5-2.2-5-5V41c0-2.8,2.2-5,5-5h50c2.8,0,5,2.2,5,5V74C87.5,76.7,85.2,79,82.5,79z"/>
			<path class="st2" d="M43.3,52.9h-6.8c-1.1,0-2-0.9-2-2v-5.2c0-1.1,0.9-2,2-2h6.8c1.1,0,2,0.9,2,2v5.2
				C45.3,52,44.4,52.9,43.3,52.9z"/>
			<line class="st5" x1="80.5" y1="61.6" x2="34.5" y2="61.6"/>
			<line class="st5" x1="80.5" y1="69" x2="34.5" y2="69"/>
		</g>
	</g>
	<g>
		<g class="st1">
			<path class="st2" d="M115,108c0,3.8-3.2,7-7,7H7c-3.8,0-7-3.2-7-7V7c0-3.8,3.2-7,7-7h101c3.8,0,7,3.2,7,7V108z"/>
		</g>
		<g class="st1">
			<g>
				<polygon class="st3" points="78,30 78,80.9 42.7,65.8 42.7,45.1 				"/>
				<polygon class="st3" points="30.9,69.4 41,69.4 46.7,85 36.6,85 				"/>
				<g>
					<circle class="st3" cx="32.6" cy="55.5" r="10.5"/>
					<rect x="32.6" y="44.9" class="st3" width="15.1" height="21.1"/>
				</g>
				<line class="st5" x1="42.7" y1="69" x2="42.7" y2="41.9"/>
			</g>
			<g>
				<line class="st4" x1="92.9" y1="56.4" x2="85.6" y2="56.4"/>
				<line class="st4" x1="91.3" y1="47.5" x2="85.6" y2="50.3"/>
				<line class="st4" x1="85.6" y1="62.5" x2="91.3" y2="65.3"/>
			</g>
		</g>
	</g>
</g>
<g id="Layer_1_copy_4" class="st0">
	<g>
		<g class="st1">
			<path class="st2" d="M115,108c0,3.8-3.2,7-7,7H7c-3.8,0-7-3.2-7-7V7c0-3.9,3.2-7,7-7h101c3.8,0,7,3.2,7,7V108z"/>
		</g>
		<g class="st1">
			<path class="st3" d="M77.6,50.1L66.7,39.2c-6.1,4.6-18.7,6.3-23,6.9L33.6,83.4l37.3-10.1C71.5,68.9,73.2,56.3,77.6,50.1z"/>
			<polyline class="st4" points="86.5,43.8 78.9,51.4 65.6,38.1 73.2,30.5 			"/>
			
				<ellipse transform="matrix(0.7071 -0.7071 0.7071 0.7071 -29.9258 56.1415)" class="st2" cx="52.8" cy="64.2" rx="5.9" ry="5.9"/>
			<line class="st5" x1="51.6" y1="65.4" x2="32.5" y2="84.5"/>
		</g>
	</g>
	<g>
		<g class="st1">
			<path class="st2" d="M115,108c0,3.8-3.2,7-7,7H7c-3.8,0-7-3.2-7-7V7c0-3.8,3.2-7,7-7h101c3.8,0,7,3.2,7,7V108z"/>
		</g>
		<g class="st1">
			<g>
				<rect x="29.9" y="24" class="st3" width="23.4" height="67"/>
				<path class="st2" d="M41.6,31.8c3.3,0,6,2.7,6,6c0,3.3-2.7,6-6,6c-3.3,0-6-2.7-6-6C35.6,34.5,38.3,31.8,41.6,31.8z"/>
				<g>
					<line class="st5" x1="33.4" y1="64.4" x2="49.8" y2="64.4"/>
					<line class="st5" x1="33.4" y1="70.6" x2="49.8" y2="70.6"/>
					<line class="st5" x1="33.4" y1="76.9" x2="49.8" y2="76.9"/>
				</g>
			</g>
			<g>
				<rect x="61.7" y="24" class="st3" width="23.4" height="67"/>
				<path class="st2" d="M73.4,31.8c3.3,0,6,2.7,6,6c0,3.3-2.7,6-6,6c-3.3,0-6-2.7-6-6C67.4,34.5,70.1,31.8,73.4,31.8z"/>
				<g>
					<line class="st5" x1="65.2" y1="64.4" x2="81.6" y2="64.4"/>
					<line class="st5" x1="65.2" y1="70.6" x2="81.6" y2="70.6"/>
					<line class="st5" x1="65.2" y1="76.9" x2="81.6" y2="76.9"/>
				</g>
			</g>
		</g>
	</g>
	<g>
		<g class="st1">
			<path class="st2" d="M115,108c0,3.8-3.2,7-7,7H7c-3.8,0-7-3.2-7-7V7c0-3.9,3.2-7,7-7h101c3.8,0,7,3.2,7,7V108z"/>
		</g>
		<g class="st1">
			<polygon class="st3" points="64.2,84.3 64.2,44.1 44.1,44.1 44.1,50.8 50.8,50.8 50.8,84.3 44.1,84.3 44.1,91 70.9,91 70.9,84.3 
							"/>
			<circle class="st3" cx="57.5" cy="30.7" r="6.7"/>
		</g>
	</g>
	<g>
		<g class="st1">
			<path class="st2" d="M115,108c0,3.8-3.2,7-7,7H7c-3.8,0-7-3.2-7-7V7c0-3.8,3.2-7,7-7h101c3.8,0,7,3.2,7,7V108z"/>
		</g>
		<g class="st1">
			<path class="st3" d="M26.8,87.5h13.7c1.7,0,3-1.3,3-3V53.8c0-1.7-1.3-3-3-3H26.8c-1.7,0-3,1.3-3,3v30.7
				C23.8,86.2,25.2,87.5,26.8,87.5z"/>
			<path class="st3" d="M45.5,87c0.5,0.4,1.3,0.6,2,0.6h27.6c0.1,0,0.1,0,0.2,0c3.1-0.5,4.7-3.4,4.2-7.7c0-0.3,0-0.4,0.2-0.6
				c2.5-3,1.6-6.5,1-7.9c-0.1-0.3-0.1-0.6,0.2-0.8c3.4-4.1,2-7.6,1.2-8.9c-0.2-0.3-0.2-0.6,0-0.8c2.7-3.6,0.4-8,0.2-8.5
				c-1.8-4.1-7.5-3.8-11.7-3.8c-0.9,0-1.8,0.1-2.4,0c-1.9-0.1-2.4-0.6-2.4-0.8c-0.2-0.3,0-0.8,0.3-1.5c0.2-0.3,0.4-0.8,0.7-1.3
				c1.4-2.6,3.8-7,4.5-10.1c0.5-2.2,0.1-5.1-1.3-7.4c-1.1-1.9-2.5-3.1-4.1-3.4c-0.9-0.2-1.8,0-2.5,0.6c-1.7,1.4-2,4.7-2,5
				c-0.7,5.5-5.5,10.5-7.8,12.7c-0.3,0.3-0.5,0.6-0.8,0.8c-1.2,1.3-1.9,3.1-2.7,5c-0.5,1.3-1,2.7-1.6,3.8c-0.9,1.5-2.2,2.8-2.9,3.7
				V87z"/>
			<g>
				<circle class="st3" cx="86.2" cy="52.6" r="5"/>
				
					<rect x="57.5" y="47.6" transform="matrix(-1 -4.486379e-11 4.486379e-11 -1 143.6815 105.2078)" class="st3" width="28.7" height="10"/>
			</g>
			<g>
				<circle class="st3" cx="84.6" cy="62.6" r="5"/>
				
					<rect x="55.9" y="57.6" transform="matrix(-1 -4.499036e-11 4.499036e-11 -1 140.4923 125.1721)" class="st3" width="28.7" height="10"/>
			</g>
			<g>
				<circle class="st3" cx="83" cy="72.6" r="5"/>
				
					<rect x="54.3" y="67.6" transform="matrix(-1 -4.499036e-11 4.499036e-11 -1 137.3032 145.1364)" class="st3" width="28.7" height="10"/>
			</g>
			<g>
				<circle class="st3" cx="80.5" cy="82.6" r="5"/>
				
					<rect x="51.8" y="77.6" transform="matrix(-1 -4.486379e-11 4.486379e-11 -1 132.3431 165.1007)" class="st3" width="28.7" height="10"/>
			</g>
			<line class="st5" x1="44.5" y1="89" x2="44.5" y2="36.6"/>
		</g>
	</g>
	<g class="st1">
		<g>
			<path class="st2" d="M230,216c0,7.7-6.3,14-14,14H14c-7.7,0-14-6.3-14-14V14C0,6.3,6.3,0,14,0h202c7.7,0,14,6.3,14,14V216z"/>
		</g>
		<g>
			<path class="st3" d="M170,157.9H60c-2.8,0-5-2.2-5-5V77.1c0-2.8,2.2-5,5-5h110c2.8,0,5,2.2,5,5v75.9
				C175,155.7,172.8,157.9,170,157.9z"/>
			<path class="st2" d="M88.5,105.8H70.9c-1.1,0-2-0.9-2-2V89.5c0-1.1,0.9-2,2-2h17.6c1.1,0,2,0.9,2,2v14.3
				C90.5,104.9,89.6,105.8,88.5,105.8z"/>
			<line class="st6" x1="161.1" y1="123.2" x2="68.9" y2="123.2"/>
			<line class="st6" x1="161.1" y1="137.9" x2="68.9" y2="137.9"/>
		</g>
	</g>
	<g>
		<g class="st1">
			<path class="st2" d="M115,108c0,3.8-3.2,7-7,7H7c-3.8,0-7-3.2-7-7V7c0-3.8,3.2-7,7-7h101c3.8,0,7,3.2,7,7V108z"/>
		</g>
		<g class="st1">
			<g>
				<polygon class="st3" points="78,30 78,80.9 42.7,65.8 42.7,45.1 				"/>
				<polygon class="st3" points="30.9,69.4 41,69.4 46.7,85 36.6,85 				"/>
				<g>
					<circle class="st3" cx="32.6" cy="55.5" r="10.5"/>
					<rect x="32.6" y="44.9" class="st3" width="15.1" height="21.1"/>
				</g>
				<line class="st5" x1="42.7" y1="69" x2="42.7" y2="41.9"/>
			</g>
			<g>
				<line class="st4" x1="92.9" y1="56.4" x2="85.6" y2="56.4"/>
				<line class="st4" x1="91.3" y1="47.5" x2="85.6" y2="50.3"/>
				<line class="st4" x1="85.6" y1="62.5" x2="91.3" y2="65.3"/>
			</g>
		</g>
	</g>
</g>
</svg>
