<?xml version="1.0" encoding="UTF-8"?>
<!-- Created with Inkscape (http://www.inkscape.org/) -->
<svg width="351" height="57.653" version="1.1" viewBox="0 0 351 57.653" xmlns="http://www.w3.org/2000/svg" xmlns:cc="http://creativecommons.org/ns#" xmlns:dc="http://purl.org/dc/elements/1.1/" xmlns:rdf="http://www.w3.org/1999/02/22-rdf-syntax-ns#"><metadata><rdf:RDF><cc:Work rdf:about=""><dc:format>image/svg+xml</dc:format><dc:type rdf:resource="http://purl.org/dc/dcmitype/StillImage"/><dc:title/></cc:Work></rdf:RDF></metadata><g transform="matrix(.26487 0 0 .26487 -.0015738 -.088439)"><path d="m1165.6 0.33984c-1.9429-0.024595-3.9078 0.028236-5.8789 0.13672-35.082 1.0489-58.789 20.582-65.686 54.654-1.1441 5.6524-2.0801 12.619-2.0801 15.48v2.0938l-0.076 0.61523c-0.377 1.1868-0.8988 2.0544-1.6797 2.6738l-5.8086 0.59961c-9.1355 0.94286-13.058 4.2941-14.934 12.758-1.1072 4.995-0.9773 6.0476 1.4668 8.5742 0.2876 0.43195 0.6769 0.7874 1.1582 1.123 2.3402 2.0731 4.4523 2.4707 11.33 2.4707h1.9785c0.033 5e-5 0.062 2e-3 0.096 2e-3h3.6895l2.7793 0.25782-0.041 21.744-0.3926 20.996c-0.4407 23.65-1.1839 44.604-1.6523 46.562-0.5711 2.3884-2.235 4.0701-5.0508 5.1094-11.31 4.1745-12.816 4.8165-12.715 9.0391-0.074 0.40321-0.1099 0.82375-0.1191 1.2578-0.012 0.12235-0.029 0.24633-0.029 0.36524 0 0.19236 0.02 0.3995 0.055 0.61523 0.079 1.8397 0.3994 3.2314 1.125 4.3106 0.5035 1.1347 1.2225 1.8735 2.2383 2.377 0.2705 0.13406 0.8452 0.25813 1.6699 0.37109 0.099 0.0396 0.1791 0.082 0.2813 0.1211 1.8127 0.69331 5.9949 1.04 9.2949 0.77148 0.8586-0.0699 1.7601-0.12363 2.6367-0.1875 14.417 0.41476 36.828 0.31244 52.73-0.20117 7.8811 0.34914 12.897 0.15059 15.982-0.9082 1.4523-0.174 2.3625-0.36311 2.6074-0.56641 0.8936-0.74161 1.4779-2.0095 1.7676-3.4766 0.2372-0.74681 0.2754-1.6276 0.2754-2.6699 0-0.12176-0.016-0.24071-0.023-0.36133 0.012-0.12103 0.025-0.24481 0.025-0.35352 0-0.0992-0.021-0.20033-0.031-0.30078-0.02-1.1582-0.3257-2.2144-0.9199-3.1641-0.3682-0.84805-0.8441-1.5879-1.4375-2.125-1.3133-1.1885-5.4423-2.815-9.1738-3.6152-14.143-3.0331-15.453-8.665-14.191-60.969l0.8418-34.918 1.0117-0.082h10.576c0.2749 0 0.4753-9e-3 0.7403-0.01 11.94-0.0402 13.509-0.67157 16.131-5.7422 7.7883-15.061 3.6897-19.582-17.748-19.582h-3.7246l-7.4102-0.35547 0.02-9.8574 0.3515-10.307c0.1766-5.1957 0.4973-10.428 0.875-14.848 1.5474-11.28 4.6259-17.71 9.5801-20.49 5.4867-3.0796 9.2915-1.0131 15.434 8.3848 3.076 4.7066 7.8289 10.263 10.562 12.348 3.2714 2.4953 5.028 3.3682 9.2617 3.6562 0.1403 0.03037 0.286 0.05389 0.4277 0.08203 2.7331 0.71436 5.4977 0.86107 8.2657 0.42774 1.1436-0.10916 2.2468-0.27718 3.2851-0.53516 2.8707-0.24811 4.2387-0.94437 6.0801-2.7656 2.1777-1.5881 3.8609-3.6961 4.9727-6.2539 1.1365-1.9366 2.0127-3.917 2.2851-5.3691 0.5809-3.0963-0.1272-6.6045-1.7578-10.074-0.581-1.5606-1.4435-3.0494-2.7441-4.8438-0.9623-1.3275-2.0686-2.5646-3.2989-3.7148-3.8645-4.0088-8.7718-7.3096-13.967-8.8789-1.7805-0.53787-5.9995-1.1347-10.734-1.6055-3.4174-0.5111-6.9638-0.80181-10.586-0.84766zm-1116 0.79492c-3.7942 0.00522-8.6015 0.06738-14.734 0.16602-18.903 0.30402-27.004 0.6867-30.828 2.5742-1.4586 0.61283-2.2489 1.4237-2.666 2.5098-0.39395 0.73194-0.68444 1.5619-0.92969 2.5391-0.77405 3.0841 0.73437 5.9555 4.416 8.5156 3e-3 0.0023 0.00481 0.0055 0.00781 0.0078 0.11337 0.07874 0.21843 0.15818 0.33594 0.23633 1.4256 1.0229 3.25 1.9611 5.4492 2.8457 6.1509 2.7723 9.2585 5.5646 10.645 18.117 0.27764 4.3898 0.4385 9.8875 0.51367 17.137 0.09948 10.971 0.02895 25.673 0 45.686-0.0065 4.4666-0.02885 8.167-0.04297 12.234-0.96228 61.764-2.144 79.223-7.082 82.904-0.66055 0.3065-1.4739 0.59357-2.4355 0.88477-0.19937 0.0167-0.4008 0.0293-0.60938 0.0293-3.5994 0-9.9222 3.5146-10.898 6.0586-1.4308 3.7286-0.90549 5.8923 2.2246 9.0996 0.33506 0.43476 0.74032 0.81549 1.2168 1.1562 3.2633 2.7904 6.7699 2.7694 25.977 1.0371 2.0149-0.18174 4.2282-0.31914 6.5488-0.41211 4.0253-0.0336 8.2417-0.0436 12.537-0.0156 0.90138 6e-3 1.545 3e-3 2.3984 8e-3 2.3765 0.0887 4.69 0.21885 6.8516 0.39454 16.768 1.3629 22.218 0.24802 24.193-4.9473 1.9829-5.2155-1.0839-9.9394-8.0156-12.348-4.4161-1.5343-6.1445-2.941-6.8477-5.5703-0.7275-2.7202-1.2427-6.6086-1.5742-11.17-0.33696-7.9421-0.3321-18.883-0.04297-28.818 0.67249-12.736 2.1546-25.013 4.2695-31.809 4.2791-13.749 14.051-23.3 22.936-22.418 10.162 1.0085 12.195 11.557 11.598 60.18-0.2541 20.694-0.68107 31.351-1.4746 35.383-0.0646 0.17445-0.12791 0.37416-0.19531 0.50976-0.52581 1.0579-1.7617 2.2391-3.1856 3.1543-1.2566 0.64182-2.7557 1.2572-4.2051 1.6914-8.2211 2.4631-10.755 9.837-4.9492 14.404 0.39131 0.30783 0.80063 0.57427 1.2812 0.8086 0.9019 0.62116 1.8694 1.0718 2.832 1.2559 0.97637 0.18664 3.7704 0.19914 7.2969 0.0859 5.3058 0.16133 13.244 0.1602 25.947 0.0899 8.8406-0.049 15.708-0.14603 21.059-0.30078 5.7645 0.2019 9.6389 3e-3 12.186-0.73242 1.639-0.22251 2.6255-0.48608 3-0.79688 0.69478-0.57662 1.1976-1.7162 1.5176-3.0898 0.38756-0.87681 0.45899-1.9525 0.45899-3.2812 0-0.0664-8e-3 -0.13281-0.01-0.19922 0.0501-0.90404-0.0133-1.7265-0.18164-2.4785-0.23238-1.8242-0.7582-3.3919-1.6016-4.0918-0.98656-0.81878-3.7091-1.8719-6.0488-2.3398-4.4159-0.88317-6.4406-1.6726-7.375-8.8476-0.27678-4.5664-0.54697-11.538-0.77343-19.877-0.0235-3.6399-0.0335-7.7274-0.0371-12.404-0.03701-48.929-1.9872-59.124-13.572-70.959-15.117-15.444-41.302-16.351-62.047-2.1484l-8.3535 5.7207v-26.24l0.11328-15.766c0.18958-26.38 0.15455-36.528-0.5625-40.957-0.23092-1.5695-0.5459-2.6125-0.94531-3.0938-0.005066-0.0061041-0.012418-0.011515-0.017578-0.017578-0.060794-0.13223-0.1221-0.2432-0.1875-0.30859-0.20467-0.20467-0.5097-0.38569-0.90234-0.54883-1.6028-1.0789-4.5973-1.4511-14.477-1.4375zm472.95 0.21875c-3.1368-0.062932-8.6357 0.49702-19.309 1.7402-33.478 3.8997-35.38 4.0628-37.799 7.2129-0.14409 0.17013-0.27676 0.34565-0.40039 0.52734-0.10644 0.14478-0.1961 0.25715-0.3125 0.41406-2.5495 3.4367-2.6086 4.0086-0.75196 7.3164 1.1076 1.9734 3.7954 4.1267 5.9727 4.7852 9.2928 2.8104 11.583 4.099 12.752 7.1738 1.4989 3.9425 2.8736 127.08 1.9512 154.3-0.24201 3.6747-0.58809 6.2795-1.0742 8.1133-0.89093 2.4844-2.2606 3.0289-7.0586 4.2129-6.5382 1.6134-11.279 5.5089-11.279 9.2695 0 3.2542 2.6814 7.1834 5.7539 8.4316 0.61404 0.24946 2.2562 0.41923 4.5274 0.50781 1.6339 0.21198 3.2833 0.2854 4.3867 0.12305 0.12654-0.0186 0.27631-0.0345 0.40625-0.0527 2.911-0.0149 6.2276-0.11442 9.5938-0.30664 8.2471-0.47094 13.41-0.73408 17.91-0.79883 0.42108-1e-3 0.70893-3.9e-4 1.1387-2e-3 0.87782-3e-3 1.4726-7e-3 2.3125-0.01 4.9791 0.0523 9.8375 0.38313 18.24 1.0274 12.522 0.96006 14.081 1.0492 16.6-1.2676 1.3336-0.75626 2.219-1.8324 2.8633-3.2656 0.95676-1.4513 1.6016-2.9636 1.6016-3.9551 0-4.2273-5.4529-8.7986-11.684-9.7949-3.2448-0.51886-6.0871-1.8638-6.8164-3.2266-0.68813-1.2858-1.6418-10.432-2.1191-20.324l-0.6543-13.551c0.0705-1.8501 0.22389-3.1542 0.49805-4.0898 0.39208-0.93797 1.0165-1.4987 1.8926-2.1699l0.65429-0.45899c1.5165-1.0616 2.3762-1.5918 3.5078-1.4336 0.33746 0.056 0.71394 0.17398 1.1367 0.33789 1.0767 0.4652 2.4901 1.3804 4.6816 2.832 7.6632 5.0759 10.585 11.027 14.822 30.186 3.1591 14.283 8.2612 27.08 11.627 29.16 0.0398 0.0246 0.26747 0.0481 0.41016 0.0723l1.543 1.877 11.916-1.2988c0.0565-6e-3 0.12462-0.01 0.18165-0.0156 15.703 0.34124 39.531 0.44946 44.307 0.0117 2.5745-0.23596 5.4297-4.443 5.4297-8.002 0-2.541-0.8238-4.4302-2.7344-5.8828-1.1655-1.1654-2.744-1.9788-4.6875-2.1816-1.578-0.47207-3.4264-0.87564-5.6055-1.2266-3.2318-0.52048-6.28-1.1528-8.0918-1.6426-1.1796-0.57417-2.1826-1.209-2.9258-1.8809-1.9965-2.7384-4.3182-9.0912-7.8789-21.297-6.3482-21.761-12.919-34.52-22.461-43.621l-7.9394-7.5742 10.828-10.545c7.4439-7.249 12.034-11.097 16.543-13.273 0.73076-0.34053 1.4712-0.64898 2.2207-0.93555 2.0901-0.76738 4.2553-1.2511 6.7695-1.5957 3.1608-0.43323 5.8196-1.3874 7.8926-2.6621 1.0196-0.45802 1.8459-0.92323 2.3106-1.3438 0.98828-0.89438 1.658-2.0748 2.0195-3.3672 1.0316-2.5336 0.55682-5.3714-1.8008-7.9766-0.3796-0.41946-0.7904-0.76826-1.4102-1.0566h-2e-3c-0.20686-0.0963-0.43741-0.18606-0.69727-0.26953-0.18625-0.05974-0.40764-0.11245-0.62695-0.16602-0.0865-0.02115-0.15593-0.04619-0.24805-0.06641-0.0953-0.02089-0.2186-0.03672-0.32031-0.05664-2.3341-0.45779-6.3766-0.66825-14.146-0.75781-2.282-0.02642-4.9009-0.04286-7.873-0.05273-0.0368-1.2e-4 -0.0881 1.18e-4 -0.125 0-3.0313-0.0098-6.4451-0.01172-10.295-0.01172-5.3291 0-9.676 0.01509-13.584 0.04492-1.4018 0.01255-2.7602 0.02807-4.0059 0.04883-18.105 0.26527-19.639 1.3798-21.039 6.1074-0.72597 2.4516 0.38649 4.9278 2.791 6.9668 0.19304 0.17448 0.40354 0.34279 0.62304 0.50781 9e-3 0.0065 0.0166 0.01301 0.0254 0.01953 0.20057 0.14972 0.41593 0.29538 0.63868 0.4375 2.165 1.4456 5.0369 2.5905 8.4004 3.2129 3.1555 0.58391 6.0144 1.2672 7.2539 1.707 0.46903 0.37931 0.65811 0.83841 0.64844 1.4492-1.7265 5.2149-19.331 24.518-29.334 31.641l-3.1426 2.2383-0.33789-62.059c-0.10028-18.528-0.187-31.243-0.32032-40.676v-25.037l-1.7382-0.79297c-0.18056-0.30375-0.37394-0.54444-0.59375-0.73242-0.90794-0.77648-1.9196-1.203-4.3594-1.252zm433.7 71.322-7.8379 0.97656c-4.3102 0.53706-15.146 1.028-24.082 1.0898-17.422 0.12065-22.117 1.138-24.334 5.2812-2.2542 4.2121 0.25879 8.3422 7.3594 12.096 1.026 0.54235 1.9254 1.0314 2.7617 1.5176 2.2749 1.6159 3.8196 2.9596 4.8379 4.373 2.9286 5.004 2.9229 14.842 2.8262 42.844-0.11389 32.957-1.2712 49.846-3.7793 54.354-0.91034 0.75399-2.2538 1.4898-3.8164 2.0664-1.112 0.28662-2.3781 0.56101-3.6211 0.75976-2.737 0.43767-5.7543 1.7333-6.7051 2.8789-2.6254 3.1634-2.1321 10.03 0.89649 12.482 0.24849 0.20122 0.54252 0.38205 0.88867 0.54688 0.28592 0.1952 0.59176 0.38094 0.93164 0.55468 2.2099 1.1298 6.2542 1.4588 12 0.97461 0.72922-0.0615 1.5709-0.11168 2.3516-0.16797 5.2706 0.0637 12.133 0.0579 21.717-2e-3 19.395-0.12111 35.672-0.27168 36.17-0.33398 2.3389-0.29247 5.0957-4.6815 5.0957-8.1133 0-4.8488-2.7332-7.5558-9.4531-9.3652-7.6201-2.0519-8.392-4.8343-8.3164-29.967 0.0905-30.051 4.311-47.042 15.057-60.609 0.4057-0.51223 0.82473-0.98847 1.248-1.4531 0.12291-0.1331 0.24651-0.27282 0.36914-0.40234 7.4625-7.8614 17.256-8.4569 21.697-0.86914 0.4666 0.7973 0.8525 1.5322 1.1738 2.3984 0.5915 2.275 0.9945 5.3136 1.2754 9.5215 0.2399 5.5857 0.2812 14.143 0.2812 28.746 0 19.8-0.4909 39.439-1.0918 43.641-1.0717 7.4934-1.1952 7.6677-6.4043 9.0703-9.5008 2.5583-12.935 8.7253-8.2226 14.252 0.29106 0.39092 0.62913 0.74353 1.002 1.0703 0.98829 0.95617 1.8367 1.5782 4.0156 1.9629 2.9918 0.77258 7.2434 0.93306 13.305 0.58008 4.7971 0.0144 11.07-0.0279 19.396-0.0879 9.826-0.0708 18.419-0.148 24.82-0.2168 2.3046 0.0183 4.1741-3e-3 5.6465-0.084 1.3198-0.0213 4.3355-0.0525 4.4395-0.0664 0.5308-0.0711 1.0799-0.3586 1.6152-0.78711h0.043l0.033-0.0586c0.9218-0.76432 1.7909-1.9617 2.4199-3.3047 0.6916-1.1526 0.9907-2.3599 0.9629-3.5644 0.01-0.13533 0.019-0.27153 0.019-0.4043 0-4.4453-5.3153-9.3359-10.148-9.3359-0.2325 0-0.4699-0.0211-0.711-0.0625-0.5498-0.15919-1.0683-0.33639-1.5566-0.5293-1.1409-0.5648-2.2224-1.4928-2.9668-2.6289-1.1244-1.716-1.6381-4.7298-1.789-15.449-0.024-2.018-0.03-4.6023-0.045-6.918-0.01-6.238 0.037-14.13 0.1367-24.633 0.4132-43.734 0.4106-43.785-2.7753-50.836-5.6666-12.541-19.047-21.224-34.73-22.539-14.706-1.2329-29.796 4.4169-42.107 15.766l-4.7774 4.4023-0.5293 0.45508-0.94726-2.8965-0.80078-3.4668c-0.83825-3.6315-2.3616-8.606-3.3848-11.055zm-518.92 0.86719c-9.9334-0.17942-20.553 3.6025-28.629 11.123-3.3807 3.1483-6.4431 5.4299-6.8047 5.0684-0.36156-0.36156-0.65818-3.4132-0.65821-6.7812 0-9.1734-1.812-9.8558-21.74-8.1816-8.9424 0.75126-20.966 1.7341-26.719 2.1836-11.533 0.90128-15.541 3.282-15.541 9.2324 1e-5 4.2008 4.3643 8.666 8.4688 8.666 5.3846 0 10.237 2.1858 12 5.2285 0.29277 1.1499 0.56977 2.6855 0.83007 4.5508 0.7999 14.51 0.92209 72.618 0.21094 87.322-0.42327 1.9659-0.97996 3.238-1.7441 4.0644-1.4692 0.44607-3.8659 0.97681-6.4961 1.3926-4.2803 0.67663-7.7636 2.0712-8.834 3.5352-0.88663 1.2125-1.4241 2.6121-1.6348 4.0449-0.0787 0.33329-0.13282 0.66676-0.13282 0.99609 0 0.12786 0.0129 0.25618 0.0195 0.38477-0.0424 0.75681 0.0494 1.5278 0.29688 2.291 0.43522 1.7378 1.3638 3.3185 2.7715 4.4258 0.20504 0.16127 0.41965 0.30861 0.64258 0.44922 1.0075 0.85393 2.1369 1.4559 3.2812 1.6562 1.6436 0.28778 4.487 0.35571 6.3203 0.15235 0.36951-0.041 0.79519-0.0782 1.1953-0.11719 5.8471 0.20214 14.851 0.22507 29.871 0.18359 11.562-0.0319 19.443-0.0818 25.219-0.20703 4.3565 0.14855 7.7507-0.0153 10.361-0.51367 3.191-0.36839 4.3513-0.93261 5.3301-1.8184 6.6184-5.9896 0.6478-15.336-9.8223-15.375-2.4061-9e-3 -4.1996 0.0758-5.541-0.35547-0.0599-0.0195-0.11705-0.0389-0.17579-0.0586-3.9954-1.468-3.7627-8.1013-3.7266-37.852 0.0263-21.665 0.20204-30.936 1.002-36.312 0.46189-2.1717 0.97638-4.1128 1.5469-5.7656 2.0115-4.9107 5.7235-10.65 8.2461-13.094 0.77175-0.64795 1.4802-1.0544 2.0801-1.1641 0.89031 0.39112 3.3416 3.4372 5.6895 7.1074 7.0239 10.98 11.53 14.182 19.963 14.182 7.2707 0 12.648-2.5348 16.621-7.9043 2.1604-2.7194 3.6716-5.9674 4.4629-9.4551 2.243-9.0363-0.58244-18.783-7.8203-25.57-5.3739-5.0392-12.684-7.5753-20.41-7.7148zm-182.43 0.07422c-16.153 0.15216-32.469 4.7978-46.137 14.137-19.626 13.41-30.098 33.969-30.164 59.221-0.0281 10.68 4.0101 27.188 8.5449 34.926 10.546 17.996 29.868 30.892 51.365 34.283 10.275 1.6211 28.052 0.33946 37.848-2.7285 29.587-9.2664 50.403-35.684 52.475-66.451 7e-3 -0.0905 0.0149-0.18094 0.0215-0.27149 0.0116-0.18214 0.0307-0.36248 0.041-0.54492 7e-3 -0.1245 7e-3 -0.24308 0.0137-0.36719 0.0665-1.1098 0.10916-2.221 0.12305-3.334 9e-3 -0.47474 4e-3 -0.93731 6e-3 -1.4062-6.2e-4 -0.0808-1e-3 -0.16143-2e-3 -0.24219 0.0376-18.852-5.7604-33.073-18.627-45.939-14.243-14.243-34.74-21.477-55.508-21.281zm438.98 0.13672c-3.7628-0.10666-10.228 0.25093-22.275 0.99219-29.101 1.7906-33.295 2.7017-35.582 7.7207-2.2337 4.9024 1.5839 9.9744 8.6777 11.527 10.553 2.3103 10.803 2.5602 11.666 11.756 1.4388 15.328 2.2772 69.59 1.2324 79.725-1.1415 11.073 0.4114 9.612-13.891 13.057-6.0215 1.4502-9.6704 6.7403-7.8867 11.432 0.75896 1.9962 2.5547 4.0634 3.9902 4.5938 0.25481 0.0941 1.2139 0.1813 2.4668 0.26563 2.1128 0.57144 4.8832 0.80992 6.2949 0.51757 0.34432-0.0713 0.87333-0.13754 1.4824-0.20117 7.691 0.20791 18.838 0.33452 30.988 0.3125 15.934-0.0289 25.94-0.0605 32.23-0.49805 2.8478-0.0736 4.5376-0.30277 5.7461-0.73437 4.1635-0.91435 4.7947-2.5319 4.873-5.4297 0.39316-1.4558 0.22993-2.9145-0.40039-4.2812-1.0865-3.5753-4.4504-5.5809-11.322-7.0547-4.2954-0.92121-7.4629-2.4372-8.2774-3.959-0.81098-1.5153-1.3203-24.257-1.3203-59.012 0-54.626-0.0896-56.63-2.6348-58.934-1.2351-1.1178-2.2958-1.6883-6.0586-1.7949zm170.67 0c-3.7628-0.10666-10.228 0.25093-22.275 0.99219-14.134 0.86968-27.654 2.1977-30.043 2.9512-12.003 3.7857-6.6463 17.156 6.873 17.156 0.62295 0 1.1965 0.04893 1.7285 0.14648 0.39864 0.10441 0.78058 0.21408 1.1484 0.33008 3.0209 1.1748 4.3636 4.7234 5.1074 12.438 1.1851 12.292 1.3125 83.173 0.1543 86.051-0.53126 1.3198-2.998 2.6429-5.7969 3.1113-9.071 1.518-13.12 3.3178-14.885 6.6152-2.1288 3.9778-0.15551 9.5059 3.9297 11.014v2e-3c0.17653 0.0651 1.0236 0.12635 2.1445 0.18554 0.019 6e-3 0.0336 0.012 0.0527 0.0176 2.1375 0.62107 5.0861 0.8799 6.5527 0.57617 0.55811-0.11558 1.5094-0.21932 2.7402-0.31445 20.361 0.40076 61.221 0.49714 66.832-0.0254 2.0074-0.18695 4.0144-2.2031 5.0469-4.6758 0.49737-1.0029 0.72283-2.0419 0.70117-3.0742 4e-3 -0.0949 0.0137-0.19051 0.0137-0.28516 0-4.8959-3.2884-7.6399-11.301-9.4355-2.6825-0.60116-5.415-1.4718-7.0449-2.2031-0.18806-0.12216-0.37156-0.24541-0.51953-0.36523-0.51-0.41297-0.92183-0.813-1.2598-1.5762-0.93753-4.0766-1.209-18.753-1.209-57.82 0-55.704-0.0881-57.709-2.6348-60.014-1.2351-1.1178-2.2939-1.6902-6.0566-1.7969zm388.79 0.08789c-2.2884-0.03604-4.6049 0.01021-6.9472 0.14453-21.708 1.2448-38.084 8.5335-51.982 23.137-12.671 13.314-17.743 24.956-19.281 44.254-0.8443 10.595 0.6028 20.744 3.9512 29.982 1.2597 3.9348 2.9483 7.5434 5.1582 11.051 10.204 17.565 28.08 30.265 50.211 33.773 9.2262 1.4625 26.578 0.58334 35.459-1.7969 24.597-6.592 46.889-29.008 53.291-53.588 2.5094-9.6343 2.623-28.319 0.2266-37.277-0.7075-2.6444-1.5852-5.2005-2.5977-7.6758-0.5622-1.5078-1.1798-2.9354-1.8515-4.2656-0.5032-0.99639-1.0765-1.9995-1.6856-3.0039-6.5472-11.508-16.576-20.653-28.91-26.664-3.0085-1.6009-6.0009-2.8919-8.8691-3.7617-1.1263-0.34156-2.2509-0.65736-3.3769-0.95703-7.1304-2.0729-14.786-3.2254-22.795-3.3516zm-1000.6 18.938c2.1658 0.02363 4.1977 0.53273 6.1094 1.5352 2.0424 1.2195 4.0447 2.9714 5.8906 5.1348 3.7605 4.7687 6.9843 12.134 9.8242 22.268 7.8361 27.961 2.7824 65.561-9.8457 73.262-2.2832 1.3923-6.551 2.5312-9.4844 2.5312-16.455 0-26.202-20.713-26.344-55.988-0.11234-27.881 5.2491-42.913 16.891-47.359 2.4646-0.94122 4.7794-1.4066 6.959-1.3828zm995.15 0.01563c1.8576-0.0099 3.7297 0.35367 5.5664 1.1211 6.2715 2.6204 11.29 9.4253 15.148 20.545 3.0183 8.6979 4.8474 18.267 5.5938 27.705 0.3898 7.7271 0.2346 16.211-0.4278 23.473-1.7371 13.92-6.1884 25.155-12.924 29.262-5.4364 3.3148-13.741 3.3453-19.115 0.0684-5.3516-3.2632-11.638-15.732-14.566-28.895-2.6826-12.058-2.2062-40.41 0.6757-52.691 0.7733-2.6745 1.6764-5.1697 2.7168-7.4336 4.0746-8.1999 10.61-13.119 17.332-13.154z" fill="#231f20" fill-opacity=".99408" stroke-width="3.7754"/><g fill="#d41e1e" stroke-width="0"><ellipse cx="844.18" cy="27.548" rx="26.516" ry="26.436"/><ellipse cx="765.13" cy="191.56" rx="26.516" ry="26.436"/><ellipse cx="673.48" cy="27.348" rx="26.516" ry="26.436"/></g></g></svg>
