<?xml version="1.0" encoding="UTF-8"?>
<svg width="351" height="57.7" version="1.1" viewBox="0 0 351 57.7" xmlns="http://www.w3.org/2000/svg" xmlns:xlink="http://www.w3.org/1999/xlink">
<g transform="translate(.0052 .00178)">
<g fill="#231f20">
<path d="m309 0.00157c-6.16-0.237-12.8 2.09-16.2 7.52-2.26 3.49-3.19 7.7-3.34 11.8-1.14 1.72-4.63 0.173-5.45 2.81-1.95 2.72 0.795 5.48 3.73 4.66 1.08-0.117 2.19-0.0872 1.74 1.31-0.0298 7.47-0.11 15-0.55 22.4-1.24 2.12-6.7 2.25-4.19 5.86 2.62 1.19 5.73 0.282 8.56 0.603 4.44-0.0604 8.91 0.0529 13.3-0.265 3.5-0.962 0.521-5.04-2.16-4.66-3.65-1.02-2.98-5.6-3.19-8.55-0.0108-5.56 0.202-11.1 0.316-16.7 2.23-0.171 4.59 0.328 6.71-0.477 2.61-2.11 2.27-6.92-1.96-6.2-1.62-0.0862-3.25-0.0316-4.87-0.153 0.119-4.17-0.216-8.48 1.11-12.5 1.24-4.22 5.48-2.09 6.53 0.963 1.56 2.7 4.74 4.05 7.74 3.27 3.35-0.632 4.65-5.29 2.34-7.76-2.11-3.16-5.98-3.88-9.5-3.96l-0.357-0.0136-0.359-0.00758z"/>
<path d="m13.1 0.212c-3.87 0.141-7.81-0.165-11.6 0.556-3.63 1.81 0.789 4.79 2.83 5.55 2.08 2.9 1.18 6.77 1.45 10.1-0.0744 10.8 0.215 21.7-0.797 32.5 1.05 4.27-6.74 2.83-4.48 7.01 2.11 2.31 5.6 0.707 8.32 0.825 3.78-0.336 7.57 0.412 11.3 0.053 3.75-0.999 0.974-4.93-1.66-5.21-1.52-2.63-0.831-5.98-1.02-8.93 0.236-4.89-0.0118-10.3 2.98-14.5 1.54-3.05 6.88-3.36 6.88 0.843 0.86 6.8 0.441 13.7 0.247 20.5 0.806 3.39-7.29 3.47-3.15 6.99 3.02 0.862 6.4 0.162 9.56 0.379 3.19-0.187 6.49 0.319 9.6-0.485 1.89-2.69-1.03-4.16-3.09-4.93-0.898-3.08-0.491-6.42-0.633-9.61-0.183-5.37 0.398-11-1.4-16.1-2.29-5.35-8.97-7.6-14.3-5.78-2.44 0.656-4.48 2.18-6.54 3.59-0.101-7.32 0.262-14.7-0.119-22-0.1-2.05-3.05-1.21-4.38-1.43z"/>
<path d="m138 0.27c-4.69 0.346-9.39 0.852-14 1.67-3.86 1.57-0.0722 4.88 2.58 5.08 2.07 2.57 0.68 6.66 1.23 9.82 0.157 10.9 0.407 21.8 0.111 32.7 0.638 3.64-6.91 2.28-4.63 6.36 2.29 2.16 5.94 0.616 8.82 0.843 3.78-0.332 7.56 0.411 11.3 0.311 4.51-2.14-0.208-5.29-2.91-5.8-0.554-3.16-0.671-6.4-0.689-9.6 1.03-3.21 4.78-0.0276 5.53 1.91 1.94 4.22 1.69 9.41 4.7 13.1 0.664 0.957 1.98 0.188 2.99 0.247 4.15-0.161 8.31 0.151 12.5-0.0752 3.8-2.35-0.929-5.33-3.74-4.91-2.94-1.39-2.6-5.65-3.91-8.29-1.24-4.2-3.45-8.15-6.86-11-1.28-0.748 0.814-1.51 1.23-2.27 2.41-2.32 4.85-5.17 8.45-5.35 3.52 0.0724 3.4-5.21-0.051-4.52-5.23-0.0716-10.5-0.252-15.7 0.157-4.35 1.22 0.413 5.32 3.11 4.71 0.962 1.92-2.88 4.31-4.08 6.06-0.998 0.698-3.53 3.93-4.03 2.87-0.0366-11.1-0.169-22.2-0.171-33.3-0.63-0.23-0.997-0.874-1.77-0.735z"/>
<path d="m253 19.2c-4.36 0.74-8.82 0.29-13.2 0.847-4.02 1.08-0.44 4.47 1.73 5.3 1.94 2.41 0.994 5.89 1.27 8.77-0.112 5.64 0.236 11.4-0.776 16.9-1.06 1.88-5.81 1.25-4.21 4.75 1.9 2.48 5.66 0.654 8.33 1.19 3.92-0.0224 7.84-0.0374 11.8-0.099 3.06-1.75 0.251-5.05-2.35-5.16-1.68-2.55-0.75-5.95-0.987-8.86 0.133-5.53 0.786-11.9 5.17-15.8 2.41-2.38 6.21-2.04e-4 5.6 3.21 0.132 6.74 0.277 13.5-0.283 20.2-0.552 2.24-6.99 3.01-3.1 6.12 3.18 0.825 6.54 0.152 9.8 0.33 2.92-0.0283 5.84-0.0342 8.76-0.0937 3.08-1.73 0.105-4.96-2.37-5.07-1.52-2.56-0.535-5.9-0.834-8.77-0.108-5.42 0.428-10.9-0.218-16.3-1.87-6.34-9.77-8.76-15.5-6.39-2.62 0.921-4.76 2.74-6.74 4.62-0.59-1.94-0.957-3.95-1.85-5.79z"/>
<path d="m116 19.4c-3.39-0.135-6.44 1.68-8.78 3.97-1.63 0.581 0.235-4.67-2.86-3.82-4.24 0.151-8.48 0.523-12.7 1.02-4.29 0.845-1.16 5.56 2.01 4.87 2.7 1.72 1.09 5.74 1.59 8.48 0.04 5.62 0.0872 11.2-0.0889 16.8-0.754 2.22-6.67 1.19-4.64 5.07 2.21 2.24 5.87 0.641 8.71 1.14 4.22-0.113 8.47 0.201 12.7-0.279 3.87-1.68-0.433-5.55-3.24-4.58-1.86-2.65-0.598-6.53-0.988-9.66 0.168-3.83-0.389-7.78 0.676-11.5 0.665-2.1 2.97-5.41 4.24-1.89 1.33 2.92 4.76 4.82 7.82 3.24 4.37-2.23 4.18-9.07 0.132-11.5-1.33-0.907-2.95-1.34-4.55-1.36z"/>
<path id="b" d="m67.5 19.4c-8.39-0.0504-17.1 5.16-19.4 13.5-1.97 6.9-0.347 15.3 5.48 19.9 5.81 5.03 14.4 5.72 21.4 2.97 7.8-3.14 12.9-11.6 12.1-20-0.203-8.13-7.27-14.7-15-16-1.51-0.296-3.05-0.435-4.59-0.421zm-0.572 5.08c3.51 0.3 4.72 4.33 5.64 7.17 1.57 5.69 1.68 12-0.573 17.5-1.13 3.45-6.17 4.05-8.24 1.16-3.26-4.43-3.18-10.3-3.09-15.6 0.26-3.58 0.651-8.27 4.42-9.93 0.587-0.224 1.21-0.374 1.84-0.367z" fill="#231f20"/>
<path id="c" d="m184 19.4c-4.7 0.227-9.5 0.171-14.1 1.2-3.76 2.42 1.31 4.52 3.59 5.03 1.1 2.73 0.639 5.88 0.894 8.79 0.018 5.56 0.509 11.2-0.284 16.7-2.04 1.05-8.06 2.37-4.41 5.56 3.6 0.396 7.28 0.129 10.9 0.237 3.56-0.166 7.24 0.347 10.7-0.545 2.84-3.76-3.49-3.74-4.75-5.68-0.595-9.94 0.0636-19.9-0.51-29.9-0.0477-1.05-1.14-1.53-2.07-1.45z" fill="#231f20"/>
</g>
<use transform="translate(264 .0361)" width="100%" height="100%" xlink:href="#b"/>
<use transform="translate(45.1 .146)" width="100%" height="100%" xlink:href="#c"/>
<path id="a" d="m185 7.16c0.227 5.12-6.01 8.79-10.4 6.14-4.34-2.13-4.91-8.8-0.999-11.6 3.87-3.35 10.6-0.789 11.3 4.29l0.0846 0.695z" fill="#d41e1e" stroke-width="0"/>
<use transform="translate(24.1 43.5)" width="100%" height="100%" xlink:href="#a"/>
<use transform="translate(45.2 -.11)" width="100%" height="100%" xlink:href="#a"/>
</g>
</svg>
